<?xml version="1.0" encoding="UTF-8" standalone="no"?>
<svg
   xmlns:dc="http://purl.org/dc/elements/1.1/"
   xmlns:cc="http://creativecommons.org/ns#"
   xmlns:rdf="http://www.w3.org/1999/02/22-rdf-syntax-ns#"
   xmlns:svg="http://www.w3.org/2000/svg"
   xmlns="http://www.w3.org/2000/svg"
   viewBox="0 0 666.66669 666.66669"
   height="666.66669"
   width="666.66669"
   xml:space="preserve"
   id="svg2"
   version="1.1"><metadata
     id="metadata8"><rdf:RDF><cc:Work
         rdf:about=""><dc:format>image/svg+xml</dc:format><dc:type
           rdf:resource="http://purl.org/dc/dcmitype/StillImage" /></cc:Work></rdf:RDF></metadata><defs
     id="defs6" /><g
     transform="matrix(1.3333333,0,0,-1.3333333,0,666.66667)"
     id="g10"><g
       transform="scale(0.1)"
       id="g12"><path
         id="path14"
         style="fill:#fbfcfc;fill-opacity:1;fill-rule:nonzero;stroke:none"
         d="M 0,0 H 5000 V 5000 H 0 Z" /><path
         id="path16"
         style="fill:#f4f4f4;fill-opacity:1;fill-rule:nonzero;stroke:none"
         d="m 2571,953.34 c -1212.96,0 -2196.266,28.711 -2196.266,64.13 0,35.43 983.306,64.14 2196.266,64.14 1212.95,0 1996.13,-28.71 1996.13,-64.14 0,-35.419 -783.18,-64.13 -1996.13,-64.13" /><path
         id="path18"
         style="fill:#c3c3c8;fill-opacity:1;fill-rule:nonzero;stroke:none"
         d="m 2911.86,3690.18 c -20.97,-0.01 -40.5,13.4 -47.26,34.4 -8.37,26.04 6,54.04 32.02,62.41 l 245.22,78.9 c 29.65,9.55 61.58,-6.83 71.12,-36.5 9.55,-29.66 -6.83,-61.57 -36.5,-71.12 l -152.41,-49.04 c -3.52,-1.17 -7.32,0.8 -8.46,4.35 -1.15,3.54 0.8,7.33 4.34,8.47 l 152.41,49.03 c 22.6,7.28 35.07,31.59 27.81,54.19 -3.51,10.9 -11.1,19.8 -21.37,25.07 -10.26,5.27 -21.91,6.24 -32.82,2.74 l -245.22,-78.9 c -18.96,-6.1 -29.42,-26.5 -23.33,-45.47 6.12,-18.97 26.54,-29.41 45.48,-23.33 l 180.5,58.07 c 15.33,4.93 23.79,21.42 18.86,36.76 -4.95,15.33 -21.39,23.76 -36.76,18.86 l -112.35,-36.15 c -3.52,-1.15 -7.32,0.81 -8.46,4.35 -1.14,3.54 0.8,7.33 4.34,8.47 l 112.35,36.14 c 22.4,7.25 46.49,-5.15 53.69,-27.55 7.21,-22.4 -5.15,-46.49 -27.55,-53.7 l -180.5,-58.07 c -5.03,-1.62 -10.14,-2.38 -15.15,-2.38" /><path
         id="path20"
         style="fill:#48ad39;fill-opacity:1;fill-rule:nonzero;stroke:none"
         d="m 1323.57,1419.66 c 0,0 -88.93,106.85 -127.46,158.75 -93.89,126.48 -188.29,258.99 -222.532,412.75 119.212,-81.75 230.192,-185.14 283.922,-319.33 32.27,-80.61 66.07,-252.17 66.07,-252.17" /><path
         id="path22"
         style="fill:#48ad39;fill-opacity:1;fill-rule:nonzero;stroke:none"
         d="m 1717.51,1155.12 c -188.36,46.12 -327.62,182 -437.43,335.09 -4.65,6.49 -15.5,0.25 -10.79,-6.3 111.71,-155.75 253.39,-293.96 444.89,-340.85 7.82,-1.92 11.15,10.13 3.33,12.06" /><path
         id="path24"
         style="fill:#48ad39;fill-opacity:1;fill-rule:nonzero;stroke:none"
         d="m 1356.62,1381 c -25.51,42.44 -75.97,73.35 -123.03,88.78 -47.06,15.42 -96.63,21.39 -144.74,33.17 -57.57,14.09 -112.987,33.1 -164.143,63.03 87.703,-141.97 268.643,-219.47 431.913,-184.98" /><path
         id="path26"
         style="fill:#48ad39;fill-opacity:1;fill-rule:nonzero;stroke:none"
         d="m 1585.41,1196.38 c 0,0 -116.69,8.32 -178.89,21.91 -46.87,10.25 -93.58,22.67 -137.14,42.77 -43.55,20.12 -84.09,48.34 -113.58,86.19 60.6,-19.58 126.32,-15.89 188.29,-30.54 78.03,-18.45 241.32,-120.33 241.32,-120.33" /><path
         id="path28"
         style="fill:#48ad39;fill-opacity:1;fill-rule:nonzero;stroke:none"
         d="m 1621.43,1177.51 c 0,0 -42.41,109.02 -73.77,164.43 -23.64,41.76 -49.29,82.72 -81.37,118.39 -32.08,35.68 -71.01,66.07 -115.88,83.07 36.6,-52.11 52.49,-115.99 84.79,-170.87 40.66,-69.1 186.23,-195.02 186.23,-195.02" /><path
         id="path30"
         style="fill:#48ad39;fill-opacity:1;fill-rule:nonzero;stroke:none"
         d="m 1876.28,2764.81 c 14.74,75.76 -11.45,164.18 -49.85,231.12 -38.4,66.94 -89.56,125.57 -132.97,189.38 -51.96,76.36 -96.29,156.18 -124.31,244.19 -46.53,-255.84 82.14,-534.31 307.13,-664.69" /><path
         id="path32"
         style="fill:#48ad39;fill-opacity:1;fill-rule:nonzero;stroke:none"
         d="m 3347.69,3376.71 c 0,0 46.91,211.5 63.23,310.91 39.78,242.23 75.95,493.18 13.61,730.61 -106.78,-198.34 -186.7,-420.79 -165.32,-645.04 12.83,-134.69 88.48,-396.48 88.48,-396.48" /><path
         id="path34"
         style="fill:#48ad39;fill-opacity:1;fill-rule:nonzero;stroke:none"
         d="m 3029.44,2598.73 c 14.37,87.52 40.09,169.88 94.09,241.25 41.3,54.6 88.05,103.11 120.29,164.24 45.72,86.69 67.21,183.71 82.78,279.74 15.28,94.24 29.3,189.8 33.95,285.23 0.39,8.05 -12.11,8.02 -12.5,0 -4.89,-100.2 -19.68,-200.61 -36.4,-299.44 -16.77,-99.08 -41.35,-199.61 -93.96,-286.34 -32.99,-54.37 -78.26,-98.98 -114.88,-150.61 -48.78,-68.78 -71.89,-148.3 -85.42,-230.74 -1.29,-7.88 10.75,-11.26 12.05,-3.33" /><path
         id="path36"
         style="fill:#48ad39;fill-opacity:1;fill-rule:nonzero;stroke:none"
         d="m 3336.47,3361.08 c -2.4,77.14 37.62,160.23 86.25,220.15 48.64,59.92 108.54,109.59 161.61,165.62 63.52,67.05 120.07,138.73 161.83,221.11 4.93,-260 -166.7,-514.24 -409.69,-606.88" /><path
         id="path38"
         style="fill:#48ad39;fill-opacity:1;fill-rule:nonzero;stroke:none"
         d="m 3192.59,2926.13 c 0,0 145.84,109.39 215.85,179.7 52.75,52.99 103.45,108.66 143.54,171.78 40.09,63.12 69.37,134.29 76.06,208.77 -62.85,-76.8 -152.06,-127.44 -220.88,-198.93 -86.65,-90.03 -214.57,-361.32 -214.57,-361.32" /><path
         id="path40"
         style="fill:#48ad39;fill-opacity:1;fill-rule:nonzero;stroke:none"
         d="m 3217.78,2962.85 c 0,0 52.75,181.08 55.05,280.27 1.74,74.75 -34.99,219.32 -152.57,361.49 7.35,-98.97 4.78,-132.81 4.15,-232.04 -0.8,-124.95 93.37,-409.72 93.37,-409.72" /><path
         id="path42"
         style="fill:#88c426;fill-opacity:1;fill-rule:nonzero;stroke:none"
         d="m 2064.08,3416.68 c 0,0 -79.01,107.86 -112.91,159.97 -82.62,127 -165.35,259.81 -189.08,409.44 109.58,-85.56 209.96,-191.41 253.55,-323.42 26.19,-79.29 48.44,-245.99 48.44,-245.99" /><path
         id="path44"
         style="fill:#48ad39;fill-opacity:1;fill-rule:nonzero;stroke:none"
         d="m 3404.2,1664.18 c 12.62,76.13 68.01,149.86 127.35,199.2 59.35,49.33 127.75,86.43 190.7,131.08 75.33,53.44 144.73,112.78 201.7,185.48 -45.67,-256 -263.4,-472.08 -519.75,-515.76" /><path
         id="path46"
         style="fill:#88c426;fill-opacity:1;fill-rule:nonzero;stroke:none"
         d="m 3204.42,1048.93 c 9.7,58.52 52.29,115.2 97.9,153.12 45.63,37.93 98.21,66.45 146.6,100.77 57.91,41.08 111.26,86.69 155.04,142.58 -35.09,-196.8 -202.48,-362.9 -399.54,-396.47" /><path
         id="path48"
         style="fill:#88c426;fill-opacity:1;fill-rule:nonzero;stroke:none"
         d="m 1729.63,1523.82 c 0,0 -53.75,122.42 -75.55,180.64 -53.12,141.89 -105.09,289.48 -95.81,440.7 88.42,-107.29 163.47,-232.38 177.4,-370.71 8.38,-83.07 -6.04,-250.63 -6.04,-250.63" /><path
         id="path50"
         style="fill:#88c426;fill-opacity:1;fill-rule:nonzero;stroke:none"
         d="m 3765.41,2751.14 c 0,0 139.88,276.1 211.95,400.67 175.62,303.58 363.12,613.49 647.15,819.22 -61.83,-315.83 -175.19,-633.94 -402.04,-862.22 -136.25,-137.12 -457.06,-357.67 -457.06,-357.67" /><path
         id="path52"
         style="fill:#88c426;fill-opacity:1;fill-rule:nonzero;stroke:none"
         d="m 3393.75,1789.79 c 1.21,430.97 230.92,809.55 508.04,1122.95 5.3,6.01 -3.51,14.88 -8.85,8.84 -279.3,-315.88 -510.47,-697.53 -511.69,-1131.79 -0.03,-8.05 12.47,-8.06 12.5,0" /><path
         id="path54"
         style="fill:#88c426;fill-opacity:1;fill-rule:nonzero;stroke:none"
         d="m 3708.79,2685.89 c 79.14,76.77 120.66,201.81 130.31,311.64 9.66,109.83 -2.43,220.34 -1.21,330.59 1.47,131.95 14.69,261.73 53.72,387.78 -263.49,-261.91 -340.09,-693.42 -182.82,-1030.01" /><path
         id="path56"
         style="fill:#88c426;fill-opacity:1;fill-rule:nonzero;stroke:none"
         d="m 3424.11,2096.51 c 0,0 -40.94,257.22 -42.88,398.96 -1.47,106.82 1.84,214.35 23.44,318.96 21.6,104.62 62.3,206.77 129.46,289.84 -11.83,-141.28 29.38,-281.92 28.93,-423.7 -0.56,-178.51 -138.95,-584.06 -138.95,-584.06" /><path
         id="path58"
         style="fill:#88c426;fill-opacity:1;fill-rule:nonzero;stroke:none"
         d="m 3305.72,2252.34 c 0,0 252.31,64.63 383.16,119.16 98.6,41.09 195.97,86.85 283.4,148.24 87.42,61.38 164.99,139.32 214.54,233.96 -124.95,-66.99 -270.39,-85.05 -400.32,-141.79 -163.6,-71.44 -480.78,-359.57 -480.78,-359.57" /><path
         id="path60"
         style="fill:#88c426;fill-opacity:1;fill-rule:nonzero;stroke:none"
         d="m 1283.36,2190.54 c 0,0 -87.09,198.36 -122.41,292.69 -86.07,229.9 -170.274,469.05 -155.25,714.06 143.27,-173.82 264.87,-376.52 287.46,-600.64 13.56,-134.62 -9.8,-406.11 -9.8,-406.11" /><path
         id="path62"
         style="fill:#88c426;fill-opacity:1;fill-rule:nonzero;stroke:none"
         d="m 1768.07,1467.06 c -29.3,78.19 -67.46,151.59 -125.72,212.17 -49.11,51.07 -107.11,92.48 -153.89,146.01 -71.53,81.86 -117.2,181.86 -154.78,282.87 -33.11,88.97 -65.19,179.43 -88.16,271.62 -1.94,7.8 -14,4.5 -12.05,-3.32 22.97,-92.19 55.05,-182.66 88.15,-271.62 34.2,-91.89 74.61,-182.64 135.09,-260.53 43.63,-56.2 98.19,-99.59 149.95,-147.68 70.17,-65.19 115.87,-143.46 149.36,-232.84 2.79,-7.46 14.88,-4.23 12.05,3.32" /><path
         id="path64"
         style="fill:#88c426;fill-opacity:1;fill-rule:nonzero;stroke:none"
         d="m 1297.39,2177.38 c -12.62,76.14 -68.01,149.87 -127.36,199.2 -59.34,49.34 -127.74,86.43 -190.69,131.08 -75.332,53.44 -144.731,112.78 -201.695,185.48 45.66,-256 263.395,-472.08 519.745,-515.76" /><path
         id="path66"
         style="fill:#88c426;fill-opacity:1;fill-rule:nonzero;stroke:none"
         d="m 1523.02,1778.65 c 0,0 -164.31,78.99 -246.64,134.36 -62.04,41.74 -122.59,86.5 -174.17,140.63 -51.58,54.13 -94.13,118.26 -115.159,190.02 76.569,-63.12 173.919,-95.48 255.309,-152.24 102.49,-71.49 280.66,-312.77 280.66,-312.77" /><path
         id="path68"
         style="fill:#88c426;fill-opacity:1;fill-rule:nonzero;stroke:none"
         d="m 1491.17,1809.79 c 0,0 -86.91,167.38 -108.43,264.23 -16.22,72.99 -8.27,221.94 79.46,384.24 12.02,-98.5 21.11,-131.21 40.99,-228.43 25.05,-122.42 -12.02,-420.04 -12.02,-420.04" /><path
         id="path70"
         style="fill:#2d2625;fill-opacity:1;fill-rule:nonzero;stroke:none"
         d="m 3318.6,2620.27 h -46.17 v 380.85 h 46.17 c 0,0 76.18,-143.32 76.18,-190.92 0,-47.61 -76.18,-189.93 -76.18,-189.93" /><path
         id="path72"
         style="fill:#8fd3f3;fill-opacity:1;fill-rule:nonzero;stroke:none"
         d="m 3312.89,2585.27 c -9.13,0 -18.26,3.55 -25.13,10.63 -13.45,13.88 -13.11,36.04 0.77,49.5 92.75,89.96 95.01,238.61 5.04,331.36 -13.45,13.88 -13.11,36.04 0.77,49.49 13.86,13.45 36.02,13.14 49.49,-0.76 116.83,-120.46 113.88,-313.51 -6.57,-430.35 -6.8,-6.59 -15.59,-9.87 -24.37,-9.87" /><path
         id="path74"
         style="fill:#f5e5a4;fill-opacity:1;fill-rule:nonzero;stroke:none"
         d="M 3296.92,2619.27 H 1627.81 v 381.85 h 1669.11 v -381.85" /><path
         id="path76"
         style="fill:#8fd3f3;fill-opacity:1;fill-rule:nonzero;stroke:none"
         d="M 3318.7,2966.49 H 1570.83 c -19.13,0 -34.64,15.51 -34.64,34.64 0,19.13 15.51,34.64 34.64,34.64 H 3318.7 c 19.13,0 34.64,-15.51 34.64,-34.64 0,-19.13 -15.51,-34.64 -34.64,-34.64" /><path
         id="path78"
         style="fill:#8fd3f3;fill-opacity:1;fill-rule:nonzero;stroke:none"
         d="M 3312.89,2584.62 H 1570.83 c -19.13,0 -34.64,15.51 -34.64,34.64 0,19.13 15.51,34.64 34.64,34.64 h 1742.06 c 19.13,0 34.64,-15.51 34.64,-34.64 0,-19.13 -15.51,-34.64 -34.64,-34.64" /><path
         id="path80"
         style="fill:#e7a43b;fill-opacity:1;fill-rule:nonzero;stroke:none"
         d="M 3023.42,2906.04 H 1679.78 c -2.76,0 -5,2.24 -5,5 0,2.76 2.24,5 5,5 h 1343.64 c 2.76,0 5,-2.24 5,-5 0,-2.76 -2.24,-5 -5,-5" /><path
         id="path82"
         style="fill:#e7a43b;fill-opacity:1;fill-rule:nonzero;stroke:none"
         d="M 3050.34,2844.12 H 1706.7 c -2.76,0 -5,2.23 -5,5 0,2.76 2.24,5 5,5 h 1343.64 c 2.77,0 5,-2.24 5,-5 0,-2.77 -2.23,-5 -5,-5" /><path
         id="path84"
         style="fill:#e7a43b;fill-opacity:1;fill-rule:nonzero;stroke:none"
         d="M 3239.66,2779.49 H 1896.03 c -2.76,0 -5,2.23 -5,5 0,2.76 2.24,5 5,5 h 1343.63 c 2.76,0 5,-2.24 5,-5 0,-2.77 -2.24,-5 -5,-5" /><path
         id="path86"
         style="fill:#2d2625;fill-opacity:1;fill-rule:nonzero;stroke:none"
         d="m 1646.99,1445.4 h 46.18 v -380.86 h -46.18 c 0,0 -76.16,143.32 -76.16,190.93 0,47.61 76.16,189.93 76.16,189.93" /><path
         id="path88"
         style="fill:#f5e5a4;fill-opacity:1;fill-rule:nonzero;stroke:none"
         d="M 1668.67,1446.41 H 3337.79 V 1064.54 H 1668.67 v 381.87" /><path
         id="path90"
         style="fill:#8fd3f3;fill-opacity:1;fill-rule:nonzero;stroke:none"
         d="m 1646.89,1029.55 c -9.13,0 -18.26,3.56 -25.12,10.64 -116.84,120.45 -113.89,313.51 6.56,430.35 13.87,13.44 36.02,13.12 49.5,-0.76 13.45,-13.87 13.11,-36.03 -0.76,-49.5 -92.75,-89.96 -95.02,-238.61 -5.05,-331.36 13.45,-13.88 13.11,-36.04 -0.77,-49.5 -6.79,-6.59 -15.58,-9.87 -24.36,-9.87" /><path
         id="path92"
         style="fill:#8fd3f3;fill-opacity:1;fill-rule:nonzero;stroke:none"
         d="M 3394.78,1029.91 H 1646.89 c -19.13,0 -34.63,15.51 -34.63,34.64 0,19.13 15.5,34.64 34.63,34.64 h 1747.89 c 19.13,0 34.63,-15.51 34.63,-34.64 0,-19.13 -15.5,-34.64 -34.63,-34.64" /><path
         id="path94"
         style="fill:#8fd3f3;fill-opacity:1;fill-rule:nonzero;stroke:none"
         d="M 3394.78,1411.77 H 1652.7 c -19.13,0 -34.63,15.51 -34.63,34.64 0,19.13 15.5,34.63 34.63,34.63 h 1742.08 c 19.13,0 34.63,-15.5 34.63,-34.63 0,-19.13 -15.5,-34.64 -34.63,-34.64" /><path
         id="path96"
         style="fill:#e7a43b;fill-opacity:1;fill-rule:nonzero;stroke:none"
         d="M 3285.81,1149.63 H 1942.18 c -2.76,0 -5,2.24 -5,5 0,2.76 2.24,5 5,5 h 1343.63 c 2.76,0 5,-2.24 5,-5 0,-2.76 -2.24,-5 -5,-5" /><path
         id="path98"
         style="fill:#e7a43b;fill-opacity:1;fill-rule:nonzero;stroke:none"
         d="M 3177.58,1267.92 H 1833.94 c -2.76,0 -5,2.24 -5,5 0,2.76 2.24,5 5,5 h 1343.64 c 2.76,0 5,-2.24 5,-5 0,-2.76 -2.24,-5 -5,-5" /><path
         id="path100"
         style="fill:#e7a43b;fill-opacity:1;fill-rule:nonzero;stroke:none"
         d="M 3069.56,1326.18 H 1725.93 c -2.76,0 -5,2.24 -5,5 0,2.77 2.24,5 5,5 h 1343.63 c 2.76,0 5,-2.23 5,-5 0,-2.76 -2.24,-5 -5,-5" /><path
         id="path102"
         style="fill:#df108b;fill-opacity:1;fill-rule:nonzero;stroke:none"
         d="M 3556.74,1479.74 H 1789.77 c -30.37,0 -55,24.63 -55,55 0,30.37 24.63,55 55,55 h 1766.97 c 30.37,0 55,-24.63 55,-55 0,-30.37 -24.63,-55 -55,-55" /><path
         id="path104"
         style="fill:#2d2625;fill-opacity:1;fill-rule:nonzero;stroke:none"
         d="m 3705.28,2074.14 h -57.81 v 476.92 h 57.81 c 0,0 95.39,-179.47 95.39,-239.09 0,-59.61 -95.39,-237.83 -95.39,-237.83" /><path
         id="path106"
         style="fill:#df108b;fill-opacity:1;fill-rule:nonzero;stroke:none"
         d="m 3698.13,2039.15 c -9.13,0 -18.26,3.56 -25.12,10.64 -13.46,13.87 -13.12,36.03 0.76,49.49 58.01,56.26 90.63,131.67 91.86,212.35 1.24,80.67 -29.07,157.06 -85.34,215.06 -13.45,13.88 -13.11,36.04 0.76,49.5 13.87,13.44 36.03,13.12 49.5,-0.77 69.27,-71.42 106.59,-165.49 105.08,-264.86 -1.52,-99.38 -41.69,-192.26 -113.13,-261.54 -6.8,-6.59 -15.59,-9.87 -24.37,-9.87" /><path
         id="path108"
         style="fill:#f5e5a4;fill-opacity:1;fill-rule:nonzero;stroke:none"
         d="M 3681.04,2072.89 H 1588.05 v 478.17 h 2092.99 v -478.17" /><path
         id="path110"
         style="fill:#df108b;fill-opacity:1;fill-rule:nonzero;stroke:none"
         d="M 3705.42,2516.06 H 1516.7 c -19.33,0 -35,15.67 -35,35 0,19.33 15.67,35 35,35 h 2188.72 c 19.33,0 35,-15.67 35,-35 0,-19.33 -15.67,-35 -35,-35" /><path
         id="path112"
         style="fill:#df108b;fill-opacity:1;fill-rule:nonzero;stroke:none"
         d="M 3698.13,2037.89 H 1516.7 c -19.33,0 -35,15.67 -35,35 0,19.33 15.67,35 35,35 h 2181.43 c 19.33,0 35,-15.67 35,-35 0,-19.33 -15.67,-35 -35,-35" /><path
         id="path114"
         style="fill:#e7a43b;fill-opacity:1;fill-rule:nonzero;stroke:none"
         d="M 3335.65,2433.26 H 1653.14 c -2.76,0 -5,2.24 -5,5 0,2.77 2.24,5 5,5 h 1682.51 c 2.77,0 5,-2.23 5,-5 0,-2.76 -2.23,-5 -5,-5" /><path
         id="path116"
         style="fill:#e7a43b;fill-opacity:1;fill-rule:nonzero;stroke:none"
         d="M 3422.29,2234.97 H 1739.78 c -2.76,0 -5,2.24 -5,5 0,2.76 2.24,5 5,5 h 1682.51 c 2.77,0 5,-2.24 5,-5 0,-2.76 -2.23,-5 -5,-5" /><path
         id="path118"
         style="fill:#e7a43b;fill-opacity:1;fill-rule:nonzero;stroke:none"
         d="M 3398.1,2171.34 H 1715.58 c -2.76,0 -5,2.23 -5,5 0,2.76 2.24,5 5,5 H 3398.1 c 2.76,0 5,-2.24 5,-5 0,-2.77 -2.24,-5 -5,-5" /><path
         id="path120"
         style="fill:#2d2625;fill-opacity:1;fill-rule:nonzero;stroke:none"
         d="m 3480.57,1624.06 h -46.18 v 380.86 h 46.18 c 0,0 76.17,-143.33 76.17,-190.94 0,-47.6 -76.17,-189.92 -76.17,-189.92" /><path
         id="path122"
         style="fill:#f4b710;fill-opacity:1;fill-rule:nonzero;stroke:none"
         d="m 3474.85,1589.06 c -9.13,0 -18.26,3.56 -25.12,10.64 -13.46,13.87 -13.12,36.03 0.76,49.49 92.74,89.96 95.02,238.61 5.06,331.37 -13.46,13.87 -13.12,36.03 0.76,49.49 13.87,13.46 36.02,13.12 49.49,-0.76 116.83,-120.46 113.88,-313.52 -6.58,-430.35 -6.8,-6.6 -15.59,-9.88 -24.37,-9.88" /><path
         id="path124"
         style="fill:#f5e5a4;fill-opacity:1;fill-rule:nonzero;stroke:none"
         d="M 3458.9,1623.06 H 1789.78 v 381.86 H 3458.9 v -381.86" /><path
         id="path126"
         style="fill:#f4b710;fill-opacity:1;fill-rule:nonzero;stroke:none"
         d="M 3480.67,1969.92 H 1732.79 c -19.33,0 -35,15.68 -35,35 0,19.33 15.67,35 35,35 h 1747.88 c 19.33,0 35,-15.67 35,-35 0,-19.32 -15.67,-35 -35,-35" /><path
         id="path128"
         style="fill:#f4b710;fill-opacity:1;fill-rule:nonzero;stroke:none"
         d="M 3474.85,1588.07 H 1732.79 c -19.33,0 -35,15.67 -35,35 0,19.32 15.67,35 35,35 h 1742.06 c 19.33,0 35,-15.68 35,-35 0,-19.33 -15.67,-35 -35,-35" /><path
         id="path130"
         style="fill:#e7a43b;fill-opacity:1;fill-rule:nonzero;stroke:none"
         d="M 3185.38,1909.84 H 1841.75 c -2.76,0 -5,2.24 -5,5 0,2.77 2.24,5 5,5 h 1343.63 c 2.76,0 5,-2.23 5,-5 0,-2.76 -2.24,-5 -5,-5" /><path
         id="path132"
         style="fill:#e7a43b;fill-opacity:1;fill-rule:nonzero;stroke:none"
         d="M 3212.3,1847.91 H 1868.68 c -2.77,0 -5,2.24 -5,5 0,2.76 2.23,5 5,5 H 3212.3 c 2.77,0 5,-2.24 5,-5 0,-2.76 -2.23,-5 -5,-5" /><path
         id="path134"
         style="fill:#e7a43b;fill-opacity:1;fill-rule:nonzero;stroke:none"
         d="M 3401.63,1783.29 H 2057.99 c -2.76,0 -5,2.24 -5,5 0,2.76 2.24,5 5,5 h 1343.64 c 2.76,0 5,-2.24 5,-5 0,-2.76 -2.24,-5 -5,-5" /><path
         id="path136"
         style="fill:#48ad39;fill-opacity:1;fill-rule:nonzero;stroke:none"
         d="m 2483.01,1773.02 -78.01,100 -78.02,-100 v 264.68 c 0,0.92 0.65,1.69 1.57,1.82 6.76,0.88 34.91,4.21 76.45,4.21 45.56,0 70.37,-3.26 76.49,-4.19 0.91,-0.14 1.52,-0.9 1.52,-1.81 v -264.71" /><path
         id="path138"
         style="fill:#c39957;fill-opacity:1;fill-rule:nonzero;stroke:none"
         d="m 1451.25,2749.05 -79.41,-239.17 115.68,-10.37 z" /><path
         id="path140"
         style="fill:#1f1613;fill-opacity:1;fill-rule:nonzero;stroke:none"
         d="m 1451.25,2749.05 -20.31,-61.18 29.59,-2.6 z" /><path
         id="path142"
         style="fill:#8fd3f3;fill-opacity:1;fill-rule:nonzero;stroke:none"
         d="m 1487.32,2497.34 c 0.96,10.65 -6.9,20.06 -17.55,21.01 -10.64,0.96 -20.05,-6.9 -21.01,-17.55 0.96,10.65 -6.9,20.05 -17.55,21.01 -10.65,0.95 -20.05,-6.91 -21.01,-17.55 0.96,10.64 -6.9,20.05 -17.55,21 -10.65,0.96 -20.06,-6.9 -21.01,-17.55 l -122.27,-1392.06 -0.23,0.02 -4.58,-51.16 c -1.75,-19.43 12.6,-36.6 32.03,-38.34 l 45.3,-4.06 c 19.44,-1.74 36.61,12.6 38.35,32.04 l 1.69,18.9 0.23,-0.02 125.16,1424.31" /><path
         id="path144"
         style="fill:#68c3ef;fill-opacity:1;fill-rule:nonzero;stroke:none"
         d="m 1487.32,2497.34 c 0.96,10.65 -6.9,20.06 -17.55,21.01 -10.64,0.96 -20.05,-6.9 -21.01,-17.55 0.9,10.01 -119.09,-1320.71 -132.6,-1478.17 l 5.73,-0.52 c 19.44,-1.74 36.61,12.6 38.35,32.04 l 1.69,18.9 0.23,-0.02 125.16,1424.31" /><path
         id="path146"
         style="fill:#2d2625;fill-opacity:1;fill-rule:nonzero;stroke:none"
         d="m 1271.4,1365.52 -21.33,-249.92 -4.58,-51.17 c -1.74,-19.43 12.6,-36.6 32.03,-38.34 l 45.31,-4.06 c 19.43,-1.74 36.6,12.6 38.34,32.04 l 1.7,18.9 24.11,282.79 -115.58,9.76" /><path
         id="path148"
         style="fill:#eff0f2;fill-opacity:1;fill-rule:nonzero;stroke:none"
         d="m 1271.27,1365.53 -2.86,-31.22 115.81,-9.78 2.87,31.22 -115.82,9.78" /><path
         id="path150"
         style="fill:#2d2625;fill-opacity:1;fill-rule:nonzero;stroke:none"
         d="m 1354.94,1556.81 -15.73,1.55 -9.78,-115.82 15.73,-1.56 9.78,115.83" /><path
         id="path152"
         style="fill:#eff0f2;fill-opacity:1;fill-rule:nonzero;stroke:none"
         d="m 1332.05,1285.74 -15.74,1.44 -4.88,-57.91 15.73,-1.45 4.89,57.92" /><path
         id="path154"
         style="fill:#88c426;fill-opacity:1;fill-rule:nonzero;stroke:none"
         d="m 1713.03,1605.13 c -56.38,-26.29 -130.65,-23.04 -190.49,-6.05 -59.83,16.99 -115.66,45.58 -174.03,67.09 -69.85,25.76 -140.92,44.87 -215.22,49.64 191.04,86.26 433.92,39.88 579.74,-110.68" /><path
         id="path156"
         style="fill:#c3c3c8;fill-opacity:1;fill-rule:nonzero;stroke:none"
         d="m 1368.94,2734.62 c -7.06,0 -14.1,1.53 -20.72,4.56 -12.08,5.54 -21.26,15.4 -25.86,27.78 l -89.73,241.45 c -10.86,29.22 4.07,61.82 33.29,72.68 14.1,5.26 29.45,4.66 43.21,-1.65 13.76,-6.3 24.22,-17.54 29.46,-31.64 l 55.78,-150.08 c 1.3,-3.49 -0.48,-7.36 -3.96,-8.65 -3.48,-1.31 -7.36,0.48 -8.66,3.96 l -55.77,150.08 c -3.99,10.73 -11.97,19.29 -22.46,24.09 -10.48,4.8 -22.17,5.25 -32.91,1.27 -22.26,-8.27 -33.64,-33.11 -25.37,-55.37 l 89.74,-241.45 c 6.94,-18.68 27.78,-28.21 46.47,-21.29 18.67,6.94 28.22,27.79 21.28,46.47 l -66.05,177.73 c -5.61,15.09 -22.47,22.82 -37.56,17.21 -15.1,-5.61 -22.82,-22.47 -17.21,-37.57 l 41.11,-110.62 c 1.3,-3.49 -0.48,-7.36 -3.97,-8.65 -3.47,-1.31 -7.36,0.48 -8.65,3.96 l -41.11,110.63 c -8.2,22.05 3.08,46.67 25.13,54.87 22.06,8.22 46.68,-3.09 54.88,-25.15 l 66.05,-177.72 c 9.53,-25.65 -3.58,-54.26 -29.22,-63.78 -5.58,-2.08 -11.39,-3.12 -17.19,-3.12" /><path
         id="path158"
         style="fill:#c3c3c8;fill-opacity:1;fill-rule:nonzero;stroke:none"
         d="m 3755.98,1319.64 c -11.03,0 -21.83,3.25 -31.26,9.53 -12.6,8.39 -21.18,21.13 -24.13,35.88 l -31.5,156.98 c -0.73,3.65 1.63,7.2 5.28,7.93 3.63,0.74 7.18,-1.63 7.92,-5.27 l 31.5,-156.98 c 2.25,-11.23 8.78,-20.93 18.39,-27.33 9.6,-6.39 21.08,-8.66 32.29,-6.42 23.28,4.66 38.43,27.41 33.76,50.69 l -50.67,252.56 c -3.93,19.54 -23.11,32.24 -42.54,28.32 -19.54,-3.92 -32.24,-23.01 -28.32,-42.54 l 37.29,-185.9 c 1.53,-7.62 5.96,-14.2 12.47,-18.55 6.53,-4.32 14.31,-5.9 21.92,-4.35 7.62,1.52 14.2,5.96 18.53,12.47 4.35,6.52 5.89,14.31 4.37,21.91 l -23.21,115.71 c -0.74,3.65 1.63,7.19 5.27,7.93 3.61,0.74 7.19,-1.63 7.93,-5.28 l 23.21,-115.7 c 2.24,-11.14 -0.03,-22.52 -6.35,-32.03 -6.34,-9.51 -15.96,-15.98 -27.09,-18.21 -11.16,-2.26 -22.51,0.02 -32.04,6.35 -9.51,6.33 -15.97,15.96 -18.21,27.09 l -37.29,185.9 c -5.38,26.83 12.06,53.02 38.86,58.4 12.94,2.59 26.17,-0.02 37.22,-7.38 11.06,-7.37 18.58,-18.55 21.18,-31.49 l 50.68,-252.57 c 6.12,-30.55 -13.75,-60.41 -44.31,-66.54 -3.71,-0.74 -7.45,-1.11 -11.15,-1.11" /><path
         id="path160"
         style="fill:#1d3450;fill-opacity:1;fill-rule:nonzero;stroke:none"
         d="m 3382.12,3534.22 -269.97,-54.09 -1141.03,-69.41 -327.04,124.81 899.76,295.06 838.28,-296.37" /><path
         id="path162"
         style="fill:#f4b710;fill-opacity:1;fill-rule:nonzero;stroke:none"
         d="m 3388.87,3578.52 -831.5,273.14 -1.54,0.62 -2.36,0.94 -2.14,0.5 -2.34,0.42 -2.31,0.07 -2.24,-0.04 -2.59,-0.44 -1.55,-0.26 -902.44,-271.84 c -12.5,-3.44 -19.85,-16.36 -16.4,-28.86 2.86,-10.41 12.31,-17.24 22.62,-17.24 2.06,0 4.16,0.27 6.24,0.85 l 893.55,269.39 823.32,-268.89 c 3.46,-1.8 7.17,-2.66 10.82,-2.66 8.47,0 16.65,4.6 20.84,12.64 5.98,11.5 1.51,25.67 -9.98,31.66" /><path
         id="path164"
         style="fill:#f1a40f;fill-opacity:1;fill-rule:nonzero;stroke:none"
         d="m 2409.77,3757.83 v 49.08 l -35.21,-12.55 v -49.12 l 35.21,12.59" /><path
         id="path166"
         style="fill:#2b5182;fill-opacity:1;fill-rule:nonzero;stroke:none"
         d="m 3112.15,3047.99 c 0,0 -341.52,-36.87 -568.31,-36.87 -266.83,0 -572.72,36.87 -572.72,36.87 v 483.65 c 0,0 255.98,94.16 572.72,94.16 299.47,0 568.31,-94.16 568.31,-94.16 v -483.65" /><path
         id="path168"
         style="fill:#1d3450;fill-opacity:1;fill-rule:nonzero;stroke:none"
         d="m 2239.07,3023.23 c -165.53,10.92 -267.95,24.76 -267.95,24.76 v 483.65 c 0,0 109.76,48.95 274.47,82.74 l -6.52,-591.15" /><path
         id="path170"
         style="fill:#f1a40f;fill-opacity:1;fill-rule:nonzero;stroke:none"
         d="m 2544.87,3002.9 c -369.99,0 -529.56,26.08 -573.75,35.13 v 41.6 c 22.16,-5.02 175.68,-36.1 573.75,-36.1 207.55,0 514.42,31 567.28,36.5 v -40.85 c -63.8,-6.59 -362.8,-36.28 -567.28,-36.28" /><path
         id="path172"
         style="fill:#f4b710;fill-opacity:1;fill-rule:nonzero;stroke:none"
         d="m 2543.84,2991.12 c -431.19,0 -572.06,36 -577.84,37.53 -10.68,2.83 -17.04,13.78 -14.22,24.46 2.82,10.67 13.78,17.03 24.46,14.21 1.35,-0.35 143.46,-36.2 567.6,-36.2 223.09,0 562.76,36.39 566.16,36.75 10.93,1.16 20.85,-6.75 22.03,-17.73 1.19,-10.99 -6.76,-20.85 -17.73,-22.03 -3.43,-0.38 -345.21,-36.99 -570.46,-36.99" /><path
         id="path174"
         style="fill:#f4b710;fill-opacity:1;fill-rule:nonzero;stroke:none"
         d="m 2404.09,3573.98 c -3.51,10.29 -7.49,21.94 -7.49,28.23 l -0.01,0.08 v 198.07 c 0,9.72 -7.88,17.6 -17.61,17.6 -9.72,0 -17.6,-7.88 -17.6,-17.6 v -198.15 l 0.08,-0.82 c -0.21,-7.21 -3.33,-22.53 -6.11,-36.17 -3.35,-16.4 -6.51,-31.89 -6.51,-40.52 0,-4.86 3.94,-8.8 8.8,-8.8 4.86,0 8.81,3.94 8.81,8.8 0,6.44 2.87,20.92 5.61,34.35 l 0.01,-0.29 c 0.91,-17.2 1.87,-34.98 1.87,-42.49 0,-4.85 3.94,-8.8 8.8,-8.8 4.86,0 8.8,3.95 8.8,8.8 0,7.98 -0.92,25.2 -1.89,43.43 l -0.13,2.4 c 2.82,-8.48 5.4,-16.97 5.4,-22.02 0,-4.87 3.94,-8.81 8.8,-8.81 4.86,0 8.8,3.94 8.8,8.81 0,9.2 -4.09,21.2 -8.43,33.9" /><path
         id="path176"
         style="fill:#1d3450;fill-opacity:1;fill-rule:nonzero;stroke:none"
         d="m 2541.63,3235.88 c -2.76,0 -5,2.24 -5,5 v 151.95 c 0,2.77 2.24,5 5,5 2.76,0 5,-2.23 5,-5 v -151.95 c 0,-2.76 -2.24,-5 -5,-5" /><path
         id="path178"
         style="fill:#f4b710;fill-opacity:1;fill-rule:nonzero;stroke:none"
         d="m 1274.68,3528.48 c -131.16,0 -202.71,-27.81 -202.71,-42.1 0,-14.3 71.55,-42.11 202.71,-42.11 131.16,0 202.71,27.81 202.71,42.11 0,14.29 -71.55,42.1 -202.71,42.1 z m 0,-107.12 c -108.66,0 -225.62,20.34 -225.62,65.02 0,44.66 116.96,65.01 225.62,65.01 108.66,0 225.62,-20.35 225.62,-65.01 0,-44.68 -116.96,-65.02 -225.62,-65.02" /><path
         id="path180"
         style="fill:#f4b710;fill-opacity:1;fill-rule:nonzero;stroke:none"
         d="m 1175.38,3662.34 c -0.95,0 -1.63,-0.16 -2.05,-0.41 -12.38,-7.14 -0.7,-83.02 64.88,-196.61 28.15,-48.75 59.27,-91.75 87.62,-121.07 31.62,-32.69 47.24,-35.15 50.21,-33.43 12.38,7.15 0.69,83.02 -64.89,196.61 -28.15,48.75 -59.27,91.75 -87.62,121.07 -27.11,28.04 -42.45,33.84 -48.15,33.84 z m 198.71,-374.85 c -16.76,0 -38.44,13.66 -64.72,40.84 -29.62,30.62 -61.93,75.21 -90.99,125.54 -54.33,94.1 -95.19,205.56 -56.5,227.9 17.87,10.33 44.16,-2.24 78.12,-37.35 29.61,-30.63 61.93,-75.21 90.99,-125.54 54.33,-94.1 95.19,-205.56 56.51,-227.9 -4.05,-2.33 -8.52,-3.49 -13.41,-3.49" /><path
         id="path182"
         style="fill:#f4b710;fill-opacity:1;fill-rule:nonzero;stroke:none"
         d="m 1373.07,3662.62 c -17.13,0 -73.49,-48.9 -134.86,-155.19 -28.14,-48.75 -49.82,-97.2 -61.03,-136.41 -12.51,-43.73 -6.83,-58.48 -3.85,-60.2 2.99,-1.72 18.58,0.73 50.2,33.43 28.35,29.32 59.47,72.32 87.62,121.07 65.58,113.59 77.27,189.47 64.89,196.61 -0.8,0.46 -1.79,0.69 -2.97,0.69 z m -197.79,-375.13 c -4.89,0 -9.36,1.16 -13.4,3.49 -17.89,10.33 -20.16,39.38 -6.73,86.33 11.72,40.97 34.17,91.24 63.23,141.57 54.33,94.11 130.42,185.27 169.12,162.89 38.68,-22.34 -2.18,-133.8 -56.51,-227.9 -29.06,-50.33 -61.38,-94.92 -90.99,-125.54 -26.28,-27.17 -47.97,-40.84 -64.72,-40.84" /><path
         id="path184"
         style="fill:#df108b;fill-opacity:1;fill-rule:nonzero;stroke:none"
         d="m 1295.21,3486.38 c 0,-11.35 -9.19,-20.54 -20.53,-20.54 -11.34,0 -20.53,9.19 -20.53,20.54 0,11.33 9.19,20.52 20.53,20.52 11.34,0 20.53,-9.19 20.53,-20.52" /><path
         id="path186"
         style="fill:#8fd3f3;fill-opacity:1;fill-rule:nonzero;stroke:none"
         d="m 4390.76,2284.7 -24.44,12.24 c 13.69,11.82 25.56,25.92 35.08,42.22 l 26.61,-13.33 c -9.89,-16.41 -22.62,-30.2 -37.25,-41.13 z m -112.65,-27.11 c 24.72,3.56 47.52,11.77 67.49,24.13 l 22.16,-11.1 c -27.44,-13.51 -58.81,-18.42 -89.65,-13.03 z m -113.18,97.57 c -2.14,6.45 -3.65,12.99 -4.88,19.56 l 22.28,-11.17 c 2.05,-23.46 9.12,-46.7 21.12,-68.72 -17.49,16.39 -30.75,36.95 -38.52,60.33 z m 50.82,162.45 24.52,-12.28 c -13.69,-11.81 -25.51,-25.95 -35.05,-42.24 l -26.73,13.39 c 9.89,16.41 22.64,30.19 37.26,41.13 z m 87.79,29.32 c 8.1,0 16.25,-0.92 24.36,-2.31 -24.47,-3.61 -47.05,-11.81 -66.87,-24.09 l -22.33,11.19 c 20.07,9.9 42.28,15.21 64.84,15.21 z m 142.92,-119.33 -22.17,11.11 c -2.03,23.38 -9.05,46.53 -20.97,68.44 22.73,-21.47 37.55,-49.51 43.14,-79.55 z m -127.8,-21.36 23.95,47.79 59.71,-29.92 c -0.1,-18.19 -3.78,-36.43 -11.16,-54.21 z m -44.47,-88.73 46.37,-23.23 c -19.68,-9.55 -41.95,-14.93 -65.87,-15.68 z m -20.47,10.25 -19.51,-38.92 c -13.77,19.62 -22.79,40.69 -26.92,62.2 z m 78.68,157 -46.85,23.48 c 19.67,9.59 42.05,14.88 66.38,15.5 z m 40.01,28.74 c 14.1,-19.88 23.26,-40.98 27.36,-62.5 l -46.9,23.5 z m -109.95,-19.3 59.69,-29.9 -23.96,-47.81 -72.51,36.34 c 9.85,16.54 22.26,30.4 36.78,41.37 z m -47.02,-61.84 72.49,-36.33 -23.95,-47.8 -59.33,29.74 c 0,18.38 3.54,36.72 10.79,54.39 z m -57.88,-30.79 c 0.04,18.54 3.62,36.94 10.75,54.41 l 26.65,-13.35 c -7.35,-17.39 -11.6,-35.32 -12.87,-53.35 z m 186.18,-93.31 -59.3,29.72 23.96,47.79 72.49,-36.33 c -9.82,-16.38 -22.41,-30.2 -37.15,-41.18 z m 94.52,38.04 -26.63,13.35 c 7.34,17.38 11.61,35.31 12.88,53.34 l 24.43,-12.24 c -0.02,-18.27 -3.46,-36.72 -10.68,-54.45 z m -59.37,205.66 c -40.3,20.2 -86.03,23.5 -128.79,9.28 -42.77,-14.21 -77.44,-44.22 -97.63,-84.52 -20.19,-40.28 -23.49,-86.03 -9.28,-128.79 14.21,-42.76 44.22,-77.43 84.52,-97.62 23.81,-11.94 49.54,-17.98 75.42,-17.98 17.91,0 35.88,2.89 53.36,8.71 42.77,14.2 77.45,44.21 97.63,84.51 41.68,83.15 7.93,184.73 -75.23,226.41" /><path
         id="path188"
         style="fill:#dadade;fill-opacity:1;fill-rule:nonzero;stroke:none"
         d="m 4013.53,1167.54 46.25,4.9 c 3.53,0.38 6.54,-2.55 6.26,-6.09 l -9.71,-128.76 c -0.48,-6.31 -9.35,-7.25 -11.14,-1.18 l -36.53,123.85 c -1,3.41 1.33,6.9 4.87,7.28" /><path
         id="path190"
         style="fill:#2d2625;fill-opacity:1;fill-rule:nonzero;stroke:none"
         d="m 3894.12,2498.21 c -10.24,-1.09 -19.47,6.31 -20.61,16.57 l -15.66,140.27 c -1.15,10.3 6.27,19.57 16.56,20.72 l 0.1,0.01 c 10.26,1.09 19.47,-6.31 20.62,-16.57 l 15.65,-140.27 c 1.15,-10.3 -6.26,-19.57 -16.55,-20.72 l -0.11,-0.01" /><path
         id="path192"
         style="fill:#dadade;fill-opacity:1;fill-rule:nonzero;stroke:none"
         d="m 4037.36,1165.91 v 0 c -38.58,-4.22 -73.6,23.9 -77.81,62.49 l -145.82,1340.16 c -4.22,38.59 136.09,53.9 140.3,15.32 l 145.82,-1340.16 c 4.22,-38.58 -23.9,-73.6 -62.49,-77.81" /><path
         id="path194"
         style="fill:#eff0f2;fill-opacity:1;fill-rule:nonzero;stroke:none"
         d="m 4037.36,1165.91 v 0 l -156.64,1439.25 c 35.08,3.83 71.21,-1.99 73.31,-21.28 l 145.82,-1340.16 c 4.22,-38.58 -23.9,-73.6 -62.49,-77.81" /><path
         id="path196"
         style="fill:#2d2625;fill-opacity:1;fill-rule:nonzero;stroke:none"
         d="m 3871.88,2035.47 c -7.37,-0.78 -13.99,4.52 -14.81,11.89 -0.83,7.4 4.5,14.07 11.89,14.89 l 140.27,15.65 0.07,0.01 c 7.37,0.78 13.99,-4.53 14.81,-11.9 0.83,-7.39 -4.5,-14.06 -11.89,-14.88 l -140.28,-15.66 h -0.06" /><path
         id="path198"
         style="fill:#2d2625;fill-opacity:1;fill-rule:nonzero;stroke:none"
         d="m 4024.13,2220.28 c -7.36,-0.78 -13.98,4.52 -14.8,11.88 l -20.39,180.94 c -0.83,7.4 4.48,14.07 11.87,14.9 l 0.09,0.01 c 7.35,0.77 13.97,-4.52 14.8,-11.89 l 20.39,-180.93 c 0.83,-7.4 -4.48,-14.07 -11.87,-14.9 l -0.09,-0.01" /><path
         id="path200"
         style="fill:#2d2625;fill-opacity:1;fill-rule:nonzero;stroke:none"
         d="m 3964.13,2491.04 c -7.35,-0.78 -13.97,4.52 -14.8,11.88 -0.84,7.38 4.46,14.06 11.85,14.9 l 54.72,6.24 0.1,0.01 c 7.35,0.78 13.97,-4.51 14.8,-11.87 0.84,-7.39 -4.46,-14.07 -11.85,-14.91 l -54.72,-6.24 -0.1,-0.01" /><path
         id="path202"
         style="fill:#2d2625;fill-opacity:1;fill-rule:nonzero;stroke:none"
         d="m 3824.51,2469.19 c -11.07,-1.17 -21.01,6.84 -22.22,17.9 -1.21,11.1 6.8,21.07 17.89,22.28 l 140.31,15.33 0.07,0.01 c 11.07,1.17 21,-6.84 22.21,-17.9 1.21,-11.1 -6.8,-21.08 -17.89,-22.29 l -140.31,-15.32 -0.06,-0.01" /><path
         id="path204"
         style="fill:#2d2625;fill-opacity:1;fill-rule:nonzero;stroke:none"
         d="m 4003.73,2401.21 c -2.73,-0.28 -5.59,0.25 -8.14,1.74 -6.45,3.71 -8.66,11.95 -4.94,18.4 l 21.37,37 c 3.73,6.44 11.97,8.65 18.41,4.92 6.44,-3.72 8.65,-11.95 4.92,-18.4 l -21.37,-37 c -2.24,-3.88 -6.11,-6.22 -10.25,-6.66" /><path
         id="path206"
         style="fill:#2d2625;fill-opacity:1;fill-rule:nonzero;stroke:none"
         d="m 4025.11,2438.21 c -7.4,-0.78 -14.03,4.58 -14.82,11.98 l -6.27,59.06 c -0.78,7.4 4.58,14.04 11.98,14.82 7.4,0.78 14.03,-4.58 14.81,-11.98 l 6.27,-59.06 c 0.79,-7.4 -4.58,-14.04 -11.97,-14.82" /><path
         id="path208"
         style="fill:#8fd3f3;fill-opacity:1;fill-rule:nonzero;stroke:none"
         d="m 4081.35,1286.93 -112.95,-11.99 c -8.63,-0.92 -12.78,-9.12 -11.87,-17.76 18.71,-176.41 75.59,-174.17 75.59,-174.17 l 27.21,2.88 c 0,0 56.07,9.75 37.35,186.16 -0.92,8.64 -6.7,15.79 -15.33,14.88" /><path
         id="path210"
         style="fill:#2d2625;fill-opacity:1;fill-rule:nonzero;stroke:none"
         d="m 3953.78,1263.58 c -5.13,-0.54 -9.74,3.16 -10.31,8.28 -0.57,5.15 3.13,9.79 8.28,10.36 l 140.26,15.66 h 0.06 c 5.13,0.55 9.74,-3.15 10.3,-8.28 0.58,-5.15 -3.13,-9.79 -8.27,-10.36 l -140.27,-15.66 h -0.05" /><path
         id="path212"
         style="fill:#2d2625;fill-opacity:1;fill-rule:nonzero;stroke:none"
         d="m 4051.21,1032.62 c -1.21,-0.13 -2.47,0.2 -3.4,0.96 -1.01,0.75 -1.62,1.9 -1.76,3.21 -0.12,1.21 0.22,2.47 1.06,3.42 1.49,1.84 4.57,2.26 6.53,0.69 l 1.17,-1.39 0.57,-1.74 c 0.14,-1.3 -0.2,-2.47 -1.04,-3.49 l -1.38,-1.19 -1.75,-0.47" /><path
         id="path214"
         style="fill:#c39957;fill-opacity:1;fill-rule:nonzero;stroke:none"
         d="m 3796.27,1061.34 -245.16,58.39 -0.3,-116.16 z" /><path
         id="path216"
         style="fill:#1f1613;fill-opacity:1;fill-rule:nonzero;stroke:none"
         d="m 3796.27,1061.34 -62.72,14.93 -0.02,-29.7 z" /><path
         id="path218"
         style="fill:#48ad39;fill-opacity:1;fill-rule:nonzero;stroke:none"
         d="m 3548.63,1003.58 c 10.7,-0.03 19.39,8.62 19.42,19.31 0.03,10.69 -8.63,19.39 -19.31,19.4 10.68,-0.01 19.38,8.63 19.4,19.32 0.03,10.68 -8.61,19.38 -19.3,19.41 10.69,-0.03 19.37,8.61 19.4,19.3 0.03,10.7 -8.61,19.39 -19.3,19.42 l -1597.43,1.12 0.01,0.22 -51.36,0.14 c -19.52,0.05 -35.38,-15.73 -35.43,-35.24 l -0.12,-45.48 c -0.04,-19.52 15.73,-35.38 35.24,-35.43 l 18.98,-0.05 v -0.23 l 1629.8,-1.21" /><path
         id="path220"
         style="fill:#88c426;fill-opacity:1;fill-rule:nonzero;stroke:none"
         d="m 3548.63,1003.58 c 10.7,-0.03 19.39,8.62 19.42,19.31 0.03,10.69 -8.63,19.39 -19.31,19.4 10.05,-0.01 -1526.06,4.15 -1684.11,3.96 l -0.02,-5.75 c -0.04,-19.52 15.73,-35.38 35.24,-35.43 l 18.98,-0.05 v -0.23 l 1629.8,-1.21" /><path
         id="path222"
         style="fill:#2d2625;fill-opacity:1;fill-rule:nonzero;stroke:none"
         d="m 2202.35,1120.57 -250.83,-0.41 -51.36,0.12 c -19.52,0.05 -35.37,-15.72 -35.42,-35.23 l -0.12,-45.49 c -0.05,-19.51 15.73,-35.37 35.24,-35.42 l 18.98,-0.05 283.81,0.49 -0.3,115.99" /><path
         id="path224"
         style="fill:#eff0f2;fill-opacity:1;fill-rule:nonzero;stroke:none"
         d="m 2202.35,1120.7 -31.35,0.15 0.3,-116.23 31.35,-0.16 -0.3,116.24" /><path
         id="path226"
         style="fill:#2d2625;fill-opacity:1;fill-rule:nonzero;stroke:none"
         d="m 2400.16,1053.93 0.19,15.8 -116.23,-0.3 -0.19,-15.8 116.23,0.3" /><path
         id="path228"
         style="fill:#eff0f2;fill-opacity:1;fill-rule:nonzero;stroke:none"
         d="m 2128.13,1053.23 0.07,15.8 -58.11,-0.14 -0.08,-15.8 58.12,0.14" /><path
         id="path230"
         style="fill:#d0ecf8;fill-opacity:1;fill-rule:nonzero;stroke:none"
         d="m 3269.95,3617.58 -285,93.62 122.56,39.43 c 22.4,7.21 34.76,31.3 27.55,53.7 -5.81,18.06 -22.6,29.62 -40.63,29.62 -4.33,0 -8.73,-0.66 -13.06,-2.07 l -112.35,-36.14 c -3.54,-1.14 -5.48,-4.93 -4.34,-8.47 0.92,-2.85 3.56,-4.68 6.4,-4.68 0.68,0 1.38,0.11 2.06,0.33 l 112.35,36.15 c 2.96,0.95 5.96,1.4 8.92,1.4 12.36,0 23.85,-7.89 27.84,-20.26 4.93,-15.34 -3.53,-31.83 -18.86,-36.76 l -140.19,-45.1 -86.81,28.51 c 2.5,12.42 11.46,23.17 24.35,27.32 l 245.22,78.9 c 4.3,1.38 8.72,2.06 13.13,2.06 6.76,0 13.48,-1.61 19.69,-4.8 10.27,-5.27 17.86,-14.17 21.37,-25.07 7.26,-22.6 -5.21,-46.91 -27.81,-54.19 l -152.41,-49.03 c -3.54,-1.14 -5.49,-4.93 -4.34,-8.47 0.91,-2.85 3.55,-4.69 6.38,-4.69 0.69,0 1.39,0.11 2.08,0.34 l 152.41,49.04 c 29.67,9.55 46.05,41.46 36.5,71.12 -7.7,23.94 -29.96,39.22 -53.85,39.22 -5.72,0 -11.54,-0.88 -17.27,-2.72 l -245.22,-78.9 c -17.14,-5.51 -29.22,-19.53 -33.08,-35.9 l -73.77,24.23 c -0.5,117.38 77.26,225.2 195.87,257.75 23.58,6.47 47.3,9.56 70.62,9.56 79.89,0 155.24,-36.22 205.32,-96.87 -6.66,-57.16 -7.88,-114.8 -2.37,-172.57 3.66,-38.45 12.44,-87.26 23.12,-137.37 -3.87,-6.25 -8,-12.33 -12.38,-18.24" /><path
         id="path232"
         style="fill:#adcada;fill-opacity:1;fill-rule:nonzero;stroke:none"
         d="m 3021.97,3708.89 c -2.83,0 -5.47,1.84 -6.38,4.69 -1.15,3.54 0.8,7.33 4.34,8.47 l 152.41,49.03 c 22.6,7.28 35.07,31.59 27.81,54.19 -3.51,10.9 -11.1,19.8 -21.37,25.07 -6.21,3.19 -12.93,4.8 -19.69,4.8 -4.41,0 -8.83,-0.68 -13.13,-2.06 l -245.22,-78.9 c -12.89,-4.15 -21.85,-14.9 -24.35,-27.32 l -12.85,4.23 c 3.86,16.37 15.94,30.39 33.08,35.9 l 245.22,78.9 c 5.73,1.84 11.55,2.72 17.27,2.72 23.89,0 46.15,-15.28 53.85,-39.22 9.55,-29.66 -6.83,-61.57 -36.5,-71.12 l -152.41,-49.04 c -0.69,-0.23 -1.39,-0.34 -2.08,-0.34 m -37.02,2.31 -21.75,7.15 140.19,45.1 c 15.33,4.93 23.79,21.42 18.86,36.76 -3.99,12.37 -15.48,20.26 -27.84,20.26 -2.96,0 -5.96,-0.45 -8.92,-1.4 l -112.35,-36.15 c -0.68,-0.22 -1.38,-0.33 -2.06,-0.33 -2.84,0 -5.48,1.83 -6.4,4.68 -1.14,3.54 0.8,7.33 4.34,8.47 l 112.35,36.14 c 4.33,1.41 8.73,2.07 13.06,2.07 18.03,0 34.82,-11.56 40.63,-29.62 7.21,-22.4 -5.15,-46.49 -27.55,-53.7 l -122.56,-39.43" /><path
         id="path234"
         style="fill:#5fbd75;fill-opacity:1;fill-rule:nonzero;stroke:none"
         d="m 3282.33,3635.82 c -10.68,50.11 -19.46,98.92 -23.12,137.37 -5.51,57.77 -4.29,115.41 2.37,172.57 23.24,-28.14 41.04,-61.54 51.32,-99.02 20.42,-74.42 7.15,-150.14 -30.57,-210.92" /><path
         id="path236"
         style="fill:#447297;fill-opacity:1;fill-rule:nonzero;stroke:none"
         d="m 3112.15,3515.96 v 15.68 c 0,0 -102.35,35.85 -251.11,63.31 -28.34,30.43 -49.95,67.98 -61.71,110.86 -1.64,5.97 -3.06,11.95 -4.27,17.92 l 440.82,-143.97 c -30.16,-27.63 -67.15,-48.7 -109.31,-60.27 -4.8,-1.32 -9.61,-2.49 -14.42,-3.53" /><path
         id="path238"
         style="fill:#c8c366;fill-opacity:1;fill-rule:nonzero;stroke:none"
         d="m 3235.88,3579.76 -440.82,143.97 c -3.5,17.27 -5.22,34.52 -5.29,51.59 l 73.77,-24.23 12.85,-4.23 86.81,-28.51 21.75,-7.15 285,-93.62 c -10.08,-13.61 -21.48,-26.28 -34.07,-37.82" /><path
         id="path240"
         style="fill:#4f85b2;fill-opacity:1;fill-rule:nonzero;stroke:none"
         d="m 3055.95,3509.93 c -74.53,0 -145.11,31.53 -194.91,85.02 148.76,-27.46 251.11,-63.31 251.11,-63.31 v -15.68 c -18.8,-4.07 -37.63,-6.03 -56.2,-6.03" /><path
         id="path242"
         style="fill:#1f1613;fill-opacity:1;fill-rule:nonzero;stroke:none"
         d="m 3173.5,3982.44 c -52.84,30.08 -117.09,40.04 -180.2,22.74 -126.22,-34.64 -200.72,-165.5 -166.09,-291.72 34.66,-126.21 165.49,-200.7 291.72,-166.09 126.22,34.64 200.72,165.5 166.08,291.72 -17.32,63.1 -58.69,113.28 -111.51,143.35 z m -263.38,-462.59 c -65.71,37.41 -117.15,99.82 -138.69,178.3 -43.08,156.98 49.59,319.73 206.56,362.81 156.98,43.08 319.72,-49.59 362.8,-206.57 43.08,-156.97 -49.58,-319.72 -206.56,-362.8 -78.49,-21.54 -158.42,-9.15 -224.11,28.26" /><path
         id="path244"
         style="fill:#fafafb;fill-opacity:1;fill-rule:nonzero;stroke:none"
         d="m 2895.91,3882.59 -1.11,0.69 c -6.56,4.57 -8.18,13.57 -3.64,20.12 12.07,17.37 26.07,33.36 41.62,47.54 5.9,5.38 15.05,4.94 20.43,-0.94 5.38,-5.9 4.96,-15.04 -0.93,-20.42 -13.97,-12.73 -26.53,-27.09 -37.35,-42.67 -4.31,-6.2 -12.6,-7.98 -19.02,-4.32" /><path
         id="path246"
         style="fill:#fafafb;fill-opacity:1;fill-rule:nonzero;stroke:none"
         d="m 2862.57,3816.72 c -5.92,3.37 -8.81,10.57 -6.52,17.24 3.87,11.35 8.53,22.55 13.82,33.28 3.54,7.17 12.22,10.11 19.37,6.58 6.89,-3.57 10.12,-12.2 6.58,-19.37 -4.76,-9.63 -8.92,-19.67 -12.4,-29.86 -2.58,-7.55 -10.81,-11.58 -18.37,-8.99 l -2.48,1.12" /><path
         id="path248"
         style="fill:#1f1613;fill-opacity:1;fill-rule:nonzero;stroke:none"
         d="m 3227.6,3040.78 c -9.65,5.48 -17.21,14.66 -20.37,26.22 l -118.67,427.06 c -6.34,23.1 7.26,46.98 30.37,53.31 23.11,6.35 46.97,-7.24 53.31,-30.35 l 118.66,-427.06 c 6.35,-23.1 -7.26,-46.99 -30.36,-53.32 -11.56,-3.17 -23.3,-1.36 -32.94,4.14" /><path
         id="path250"
         style="fill:#f4b710;fill-opacity:1;fill-rule:nonzero;stroke:none"
         d="m 3089.32,3433.36 c -4.83,2.75 -8.6,7.34 -10.19,13.12 -3.16,11.55 3.62,23.49 15.19,26.65 l 83.66,22.96 c 11.56,3.18 23.48,-3.61 26.66,-15.17 3.17,-11.56 -3.62,-23.49 -15.18,-26.66 l -83.67,-22.96 c -5.78,-1.59 -11.65,-0.68 -16.47,2.06" /><path
         id="path252"
         style="fill:#f4b710;fill-opacity:1;fill-rule:nonzero;stroke:none"
         d="m 2541.63,4109.07 c -8.28,0 -15,6.71 -15,15 v 120.15 c 0,8.29 6.72,15 15,15 8.28,0 15,-6.71 15,-15 v -120.15 c 0,-8.29 -6.72,-15 -15,-15" /><path
         id="path254"
         style="fill:#f4b710;fill-opacity:1;fill-rule:nonzero;stroke:none"
         d="m 2292.39,4062.75 c -3.84,0 -7.68,1.47 -10.61,4.4 l -84.97,84.96 c -5.86,5.86 -5.86,15.35 0,21.21 5.86,5.86 15.35,5.86 21.21,0 l 84.97,-84.96 c 5.86,-5.86 5.86,-15.35 0,-21.21 -2.93,-2.93 -6.76,-4.4 -10.6,-4.4" /><path
         id="path256"
         style="fill:#f4b710;fill-opacity:1;fill-rule:nonzero;stroke:none"
         d="m 2790.88,4062.75 c -3.84,0 -7.68,1.47 -10.61,4.4 -5.86,5.85 -5.86,15.35 0,21.21 l 84.96,84.96 c 5.86,5.86 15.36,5.86 21.22,0 5.85,-5.85 5.85,-15.35 0,-21.21 l -84.97,-84.96 c -2.93,-2.93 -6.76,-4.4 -10.6,-4.4" /><path
         id="path258"
         style="fill:#1f1613;fill-opacity:1;fill-rule:nonzero;stroke:none"
         d="m 2601.04,320.52 c -4.32,-4.438 -8.03,-9.321 -11.09,-14.528 l -4.65,2.399 c -0.66,2.98 -3.48,5.031 -6.58,4.668 -3.31,-0.387 -5.68,-3.387 -5.29,-6.7 0.39,-3.308 3.39,-5.679 6.7,-5.3 l 1.83,0.531 4.51,-2.34 c -2.51,-5.539 -4.32,-11.391 -5.39,-17.441 l 7.46,-1.309 c 2.31,13.051 8.5,25.059 17.92,34.719 l -5.42,5.301" /><path
         id="path260"
         style="fill:#1f1613;fill-opacity:1;fill-rule:nonzero;stroke:none"
         d="m 2655.92,343.539 c -1.71,0 -3.41,-0.059 -5.1,-0.18 l -0.73,6.27 c 1.87,1.48 2.96,3.891 2.65,6.441 -0.46,3.93 -4.02,6.739 -7.95,6.282 -3.93,-0.473 -6.74,-4.02 -6.28,-7.961 0.3,-2.532 1.89,-4.602 4.05,-5.629 l 0.73,-6.242 c -7.14,-1.161 -14.03,-3.321 -20.59,-6.469 l 3.27,-6.832 c 9.33,4.472 19.41,6.742 29.95,6.742 4.96,0 9.93,-0.539 14.74,-1.59 l 1.62,7.418 c -5.36,1.16 -10.85,1.75 -16.36,1.75" /><path
         id="path262"
         style="fill:#1f1613;fill-opacity:1;fill-rule:nonzero;stroke:none"
         d="m 2721.94,318.059 c 3.31,0.41 5.67,3.41 5.26,6.73 -0.41,3.313 -3.42,5.66 -6.72,5.25 -3.1,-0.379 -5.36,-3.039 -5.3,-6.078 l -4.16,-3.641 c -4.18,4.301 -8.9,8.129 -14.09,11.391 l -4.03,-6.41 c 11.34,-7.153 20.21,-17.262 25.64,-29.262 l 6.9,3.133 c -2.51,5.547 -5.67,10.719 -9.42,15.449 l 4.02,3.508 1.9,-0.07" /><path
         id="path264"
         style="fill:#1f1613;fill-opacity:1;fill-rule:nonzero;stroke:none"
         d="m 2650.44,241.449 c -3.86,-0.23 -7.74,-0.347 -11.57,-0.347 -8.8,0 -17.33,0.609 -24.78,1.789 -3.9,0.629 -8.46,1.55 -12.7,2.918 10.46,-18.598 30.69,-31.25 53.87,-31.25 28.56,0 52.63,19.16 59.51,45.043 -6.82,-4.493 -15.06,-8.25 -24.59,-11.223 -11.79,-3.68 -25.54,-6.078 -39.74,-6.93" /><path
         id="path266"
         style="fill:#1f1613;fill-opacity:1;fill-rule:nonzero;stroke:none"
         d="m 2681.7,272.301 c -7.5,0 -13.6,6.109 -13.6,13.609 0,7.5 6.1,13.602 13.6,13.602 7.5,0 13.6,-6.102 13.6,-13.602 0,-7.5 -6.1,-13.609 -13.6,-13.609 z m -47.37,-9.082 c -10.21,0 -18.5,8.301 -18.5,18.5 0,10.203 8.29,18.492 18.5,18.492 10.19,0 18.49,-8.289 18.49,-18.492 0,-10.199 -8.3,-18.5 -18.49,-18.5 z m 21.59,65.152 c -33.53,0 -60.8,-26.66 -60.8,-59.43 0,-4.261 0.47,-8.492 1.37,-12.621 6.74,-4.832 27.06,-8.898 53.48,-7.308 28.79,1.73 52.97,9.57 66.72,21.59 -0.06,1.949 -0.21,3.898 -0.45,5.82 -3.81,29.617 -29.74,51.949 -60.32,51.949" /><path
         id="path268"
         style="fill:#1f1613;fill-opacity:1;fill-rule:nonzero;stroke:none"
         d="m 2815.95,309.699 c -2.94,1.16 -8.05,3.09 -13.82,2.371 -5.51,-0.679 -8.44,-3.398 -8.44,-10.058 v -8.66 h 22.28 v -17.18 h -22.28 v -54.543 h -19.31 v 54.543 h -13.4 v 17.18 h 13.4 v 8.878 c 0,16.801 8.95,27.829 25.68,27.829 6.42,0 11.57,-1.219 15.9,-3.09 l -0.01,-17.27" /><path
         id="path270"
         style="fill:#1f1613;fill-opacity:1;fill-rule:nonzero;stroke:none"
         d="m 2862.98,276.379 c -1.77,0.301 -3.58,0.473 -5.27,0.473 -8.95,0 -15.09,-5.481 -15.09,-16.153 v -39.07 h -19.32 v 71.723 h 18.72 V 285.5 c 4.52,6.742 11.41,9.77 20.22,9.77 4.14,0 8.47,-1.282 10.93,-3.372 l -10.19,-15.519" /><path
         id="path272"
         style="fill:#1f1613;fill-opacity:1;fill-rule:nonzero;stroke:none"
         d="m 2888.51,264.262 h 31.74 c -1.76,9.179 -7.32,14.359 -15.61,14.359 -9.1,0 -14.43,-5.48 -16.13,-14.359 z m 51.14,-6.66 c 0,-2.223 -0.15,-4.891 -0.37,-6.52 h -50.84 c 2.07,-10.363 9.32,-14.871 18.43,-14.871 6.21,0 12.94,2.508 18.12,6.891 l 11.33,-12.454 c -8.15,-7.468 -18.51,-10.867 -30.57,-10.867 -21.98,0 -37.22,14.949 -37.22,37.52 0,22.57 14.8,37.969 36.26,37.969 20.65,0 34.79,-15.321 34.86,-37.668" /><path
         id="path274"
         style="fill:#1f1613;fill-opacity:1;fill-rule:nonzero;stroke:none"
         d="m 2965.04,264.262 h 31.75 c -1.77,9.179 -7.33,14.359 -15.62,14.359 -9.1,0 -14.43,-5.48 -16.13,-14.359 z m 51.14,-6.66 c 0,-2.223 -0.14,-4.891 -0.37,-6.52 h -50.84 c 2.07,-10.363 9.32,-14.871 18.43,-14.871 6.21,0 12.95,2.508 18.13,6.891 l 11.32,-12.454 c -8.14,-7.468 -18.5,-10.867 -30.56,-10.867 -21.99,0 -37.23,14.949 -37.23,37.52 0,22.57 14.8,37.969 36.26,37.969 20.65,0 34.79,-15.321 34.86,-37.668" /><path
         id="path276"
         style="fill:#1f1613;fill-opacity:1;fill-rule:nonzero;stroke:none"
         d="m 3042.87,257.52 c 0,-11.321 7.47,-19.758 18.43,-19.758 11.4,0 18.5,8.808 18.5,19.758 0,10.96 -7.1,19.769 -18.5,19.769 -10.96,0 -18.43,-8.437 -18.43,-19.769 z m 56.77,0 c 0,-21.528 -14.95,-37.739 -34.71,-37.739 -9.63,0 -16.43,3.77 -21.09,9.321 V 192.02 h -19.25 v 101.332 h 18.88 v -7.922 c 4.66,5.851 11.54,9.84 21.38,9.84 19.84,0 34.79,-16.211 34.79,-37.75" /><path
         id="path278"
         style="fill:#1f1613;fill-opacity:1;fill-rule:nonzero;stroke:none"
         d="m 3128.09,221.629 h -19.32 v 71.723 h 19.32 z m 2.58,95.18 c 0,-6.957 -5.4,-12.289 -12.36,-12.289 -6.95,0 -12.28,5.332 -12.28,12.289 0,6.961 5.33,12.441 12.28,12.441 6.96,0 12.36,-5.48 12.36,-12.441" /><path
         id="path280"
         style="fill:#1f1613;fill-opacity:1;fill-rule:nonzero;stroke:none"
         d="m 3160.32,267.809 27.01,25.543 h 23.7 l -34.8,-33.75 35.01,-37.973 h -23.76 l -27.16,29.012 v -29.012 h -19.31 v 106.57 h 19.31 v -60.39" /><path
         id="path282"
         style="fill:#1f1613;fill-opacity:1;fill-rule:nonzero;stroke:none"
         d="m 1844.13,241.461 v 32.078 c -3.96,6.16 -12.46,11.43 -21.24,11.43 -14.21,0 -22.71,-11.719 -22.71,-27.387 0,-15.684 8.5,-27.25 22.71,-27.25 8.78,0 17.28,4.977 21.24,11.129 z m 0,-19.18 v 10.539 c -5.28,-7.179 -13.92,-12.3 -23.88,-12.3 -18.46,0 -31.5,14.062 -31.5,37.062 0,22.559 12.9,37.207 31.5,37.207 9.52,0 18.16,-4.687 23.88,-12.457 v 37.648 h 10.98 v -97.699 h -10.98" /><path
         id="path284"
         style="fill:#1f1613;fill-opacity:1;fill-rule:nonzero;stroke:none"
         d="m 1904.03,285.699 c -15.08,0 -22.56,-12.738 -23.14,-23.578 h 46.43 c -0.14,10.551 -7.17,23.578 -23.29,23.578 z m -34.71,-27.98 c 0,20.511 14.64,37.07 34.86,37.07 21.39,0 33.98,-16.699 33.98,-37.937 v -2.793 h -57.27 c 0.88,-13.329 10.25,-24.457 25.49,-24.457 8.05,0 16.26,3.218 21.82,8.937 l 5.28,-7.18 c -7.03,-7.027 -16.56,-10.839 -28.13,-10.839 -20.95,0 -36.03,15.089 -36.03,37.199" /><path
         id="path286"
         style="fill:#1f1613;fill-opacity:1;fill-rule:nonzero;stroke:none"
         d="m 1946.07,231.648 5.71,7.911 c 4.69,-5.418 13.63,-10.11 23.29,-10.11 10.84,0 16.7,5.133 16.7,12.16 0,17.141 -43.8,6.59 -43.8,32.813 0,10.988 9.53,20.367 26.37,20.367 12.01,0 20.51,-4.551 26.22,-10.258 l -5.13,-7.621 c -4.24,5.129 -12.01,8.942 -21.09,8.942 -9.67,0 -15.67,-4.832 -15.67,-11.133 0,-15.528 43.79,-5.278 43.79,-32.821 0,-11.859 -9.52,-21.378 -27.83,-21.378 -11.57,0 -21.38,3.511 -28.56,11.128" /><path
         id="path288"
         style="fill:#1f1613;fill-opacity:1;fill-rule:nonzero;stroke:none"
         d="m 2016.67,222.281 v 70.75 h 10.99 v -70.75 z m -1.9,88.18 c 0,4.098 3.37,7.469 7.32,7.469 4.11,0 7.47,-3.371 7.47,-7.469 0,-4.102 -3.36,-7.332 -7.47,-7.332 -3.95,0 -7.32,3.23 -7.32,7.332" /><path
         id="path290"
         style="fill:#1f1613;fill-opacity:1;fill-rule:nonzero;stroke:none"
         d="m 2097.08,242.641 v 30.898 c -3.8,6.16 -12.3,11.43 -21.08,11.43 -14.22,0 -22.71,-11.278 -22.71,-26.949 0,-15.532 8.49,-26.961 22.71,-26.961 8.78,0 17.28,5.421 21.08,11.582 z m -51.26,-38.532 5.57,8.2 c 5.86,-7.028 12.89,-9.657 22.99,-9.657 11.72,0 22.7,5.707 22.7,21.239 v 10.097 c -5.12,-7.168 -13.76,-12.586 -23.73,-12.586 -18.45,0 -31.48,13.77 -31.48,36.618 0,22.699 12.88,36.769 31.48,36.769 9.53,0 18.03,-4.687 23.73,-12.457 v 10.699 h 10.99 v -68.699 c 0,-23.441 -16.4,-30.773 -33.69,-30.773 -12.01,0 -20.21,2.351 -28.56,10.55" /><path
         id="path292"
         style="fill:#1f1613;fill-opacity:1;fill-rule:nonzero;stroke:none"
         d="m 2174.13,222.281 v 46.278 c 0,12.461 -6.29,16.41 -15.81,16.41 -8.65,0 -16.86,-5.27 -20.95,-10.989 v -51.699 h -10.99 v 70.75 h 10.99 V 282.77 c 4.98,5.859 14.64,12.019 25.19,12.019 14.79,0 22.56,-7.48 22.56,-22.859 v -49.649 h -10.99" /><path
         id="path294"
         style="fill:#1f1613;fill-opacity:1;fill-rule:nonzero;stroke:none"
         d="m 2234.04,285.699 c -15.08,0 -22.56,-12.738 -23.14,-23.578 h 46.43 c -0.15,10.551 -7.18,23.578 -23.29,23.578 z m -34.71,-27.98 c 0,20.511 14.64,37.07 34.86,37.07 21.38,0 33.98,-16.699 33.98,-37.937 v -2.793 h -57.27 c 0.88,-13.329 10.25,-24.457 25.49,-24.457 8.05,0 16.25,3.218 21.82,8.937 l 5.28,-7.18 c -7.03,-7.027 -16.56,-10.839 -28.13,-10.839 -20.95,0 -36.03,15.089 -36.03,37.199" /><path
         id="path296"
         style="fill:#1f1613;fill-opacity:1;fill-rule:nonzero;stroke:none"
         d="m 2333.5,241.461 v 32.078 c -3.96,6.16 -12.45,11.43 -21.24,11.43 -14.21,0 -22.7,-11.719 -22.7,-27.387 0,-15.684 8.49,-27.25 22.7,-27.25 8.79,0 17.28,4.977 21.24,11.129 z m 0,-19.18 v 10.539 c -5.27,-7.179 -13.92,-12.3 -23.88,-12.3 -18.45,0 -31.49,14.062 -31.49,37.062 0,22.559 12.89,37.207 31.49,37.207 9.52,0 18.17,-4.687 23.88,-12.457 v 37.648 h 10.99 v -97.699 h -10.99" /><path
         id="path298"
         style="fill:#1f1613;fill-opacity:1;fill-rule:nonzero;stroke:none"
         d="m 2429,230.332 c 14.35,0 22.85,11.566 22.85,27.25 0,15.668 -8.5,27.387 -22.85,27.387 -8.64,0 -17.29,-5.27 -21.09,-11.43 v -32.078 c 3.8,-6.152 12.45,-11.129 21.09,-11.129 z m -32.08,-8.051 v 97.699 h 10.99 v -37.648 c 5.71,7.77 14.2,12.457 23.87,12.457 18.46,0 31.5,-14.648 31.5,-37.207 0,-23 -13.04,-37.062 -31.5,-37.062 -9.96,0 -18.6,5.121 -23.87,12.3 v -10.539 h -10.99" /><path
         id="path300"
         style="fill:#1f1613;fill-opacity:1;fill-rule:nonzero;stroke:none"
         d="m 2475.28,204.551 c 1.61,-0.731 4.26,-1.172 6.01,-1.172 4.83,0 8.06,1.609 10.55,7.473 l 4.69,10.687 -29.6,71.492 h 11.87 l 23.58,-58.011 23.44,58.011 h 12.01 l -35.45,-85.109 c -4.25,-10.25 -11.42,-14.211 -20.8,-14.363 -2.34,0 -6,0.441 -8.05,1.031 l 1.75,9.961" /></g></g></svg>