<svg xmlns="http://www.w3.org/2000/svg" viewBox="0 0 180 181"><circle cx="89.9" cy="90.6" r="88.9" fill="#000005"/><path fill="#FFF" d="M76.1 105.4H73v1.3h.9v6.4H73v1.3h3.1c3.5 0 3.8-2.2 3.8-4.6 0-3.1-1.1-4.4-3.8-4.4zm2.3 4.6c0 2.6-.8 3.2-2 3.2h-1v-6.4h1c1.2 0 2 .5 2 3.2zM89.4 105.4v6.1c0 1.2-.2 1.7-1.5 1.7-1 0-1.4-.4-1.4-1.7v-6.1H85v6.6c0 1.2.8 2.6 2.9 2.6 2 0 2.9-1.3 2.9-2.6v-6.7h-1.4zM112.8 105.4h-1.6s-1.2 2.9-1.5 3.5c-.3-.6-1.5-3.5-1.5-3.5h-1.8l-.4 9.1h1.5s.2-5.4.2-6.5c.4 1 1.8 4.3 1.8 4.3s1.4-3.4 1.8-4.3c0 1.1.2 6.5.2 6.5h1.5l-.4-9.1h.2zM121.5 105.3c-.8 0-3.3.3-3.3 4.7 0 4.3 2.5 4.7 3.3 4.7 3 0 3.3-3.6 3.3-4.7 0-4.4-2.5-4.7-3.3-4.7zm0 7.9c-1.5 0-1.8-2.1-1.8-3.3 0-1.5.3-3.3 1.8-3.3s1.8 1.8 1.8 3.3c-.1 1.3-.3 3.3-1.8 3.3zM134.8 105.4v5.2s0 .9.1 1.5c-.5-1.2-3.1-6.7-3.1-6.7h-1.7v9.1h1.5v-5.2s0-.9-.1-1.5c.5 1.2 3.1 6.7 3.1 6.7h1.7v-9.1h-1.5zM144.8 105.4h-3.1v1.3h.9v6.4h-.9v1.3h3.1c3.5 0 3.8-2.2 3.8-4.6 0-3.1-1.1-4.4-3.8-4.4zm2.3 4.6c0 2.6-.7 3.2-2 3.2h-1v-6.4h1c1.2 0 2 .5 2 3.2zM154.1 105.4v9.1h5.8v-1.3h-4.3v-2.8h3.6V109h-3.6v-2.3h4.3v-1.3h-5.8zM43.9 78.3c-2.2 0-4.3.9-5.8 2.4-1.7 1.7-2.6 4.1-2.6 6.5 0 3.8 2.4 6.3 6.1 6.3 2.2 0 4.3-.9 5.8-2.4 1.7-1.8 2.6-4.1 2.6-6.6.1-3.8-2.3-6.2-6.1-6.2zM42 91.9c-1.7 0-2.6-1.4-2.6-4.2 0-4.7 2-7.8 4.1-7.8 1.8 0 2.6 1.4 2.6 4.3.1 4.6-1.9 7.7-4.1 7.7zM67 79.1l-2.4-.8h-.9c-1.9 4.4-3.4 8.1-4.6 11.2l-1-6.6c-.5-2.9-1-4.4-2.3-4.6l-4.6 1.1v1l2.6.2c.3.6.6 1.4.8 2.3L56.7 94c-1.3 2.1-2.5 3.2-3.6 3.3l-2-1.9c-1.1.2-1.8 1.1-1.8 2.1 0 1.2 1.1 2.3 2.6 2.3 2.5 0 5-2.4 7.6-7.2 2.3-4.2 3.5-8.5 5.9-11.7l1.8-1v-.8zM71.3 93.4c1.5 0 3.1-.8 4.8-2.4v.2c0 1.4.8 2.3 2.3 2.3 1.1 0 2.7-.4 4.6-1.1v-1.1c-.8.2-1.4.3-1.8.3-.9 0-1.4-.6-1.4-1.6 0-.4.1-1.1.3-2.1L81 83c.5-2.4.8-4 1-4.6h-1.8L79 79c-1.2-.5-2.4-.7-3.5-.7-2.7 0-5.2 1.3-6.7 3.6-1.2 1.8-1.8 3.8-1.8 6 0 3.5 1.6 5.5 4.3 5.5zM76 79.7h.4l1.2 1.8-1.4 8c-1.1.9-2.1 1.4-3 1.4-1.5 0-2.3-1.2-2.3-3.5 0-4.5 2.3-7.7 5.1-7.7zM105.2 93.4c1.8 0 4-.8 6.2-2.5l.1-1.8c-1.8 1.4-3.4 2.1-4.7 2.1-2 0-3.2-1.4-3.2-4 0-.3 0-.6.1-.9h.9c5 0 7.8-1.8 7.8-4.7 0-2-1.4-3.3-3.7-3.3-1.8 0-3.7.7-5.3 2-2.2 1.9-3.4 4.5-3.4 7.3-.1 3.7 1.9 5.8 5.2 5.8zm2.6-13.5c.9 0 1.5.6 1.5 1.5 0 1.7-2.1 3.5-5.5 3.7.9-3.5 2.4-5.2 4-5.2zM115.1 88.7c-.1.6-.2 1.2-.2 1.8 0 1.8 1.2 2.9 3.1 2.9 1.3 0 3.2-.8 5.6-2.6v.3c0 1.5.8 2.4 2.3 2.4 1 0 2.6-.4 4.7-1.2v-1.1c-.8.2-1.4.3-1.9.3-.8 0-1.4-.6-1.4-1.5 0-.6.2-1.3.3-2.2l1.8-9.3-3.6.4-2.1 10.6c-1.5 1-2.8 1.4-3.6 1.4-1 0-1.6-.5-1.6-1.6 0-.4.1-1 .2-1.8l1.8-9h-1.1l-5.2 1.1v.9l2.4.4-1.5 7.8zM132.3 93.2h3.7l1.2-7c.5-2.7 1.6-4.3 4-5.4l.8 2.3h.1c1.8 0 2.9-1.1 2.9-2.6 0-1.3-.9-2.2-2.2-2.2-1.4 0-3.2 1.4-5.2 4l.8-4h-1.1l-5.2 1.2v1l2.5.4-2.3 12.3zM149.2 93.5c3.4 0 5.9-2.3 5.9-5 0-2.1-1.2-3-3.2-4.4-1.5-1.1-2.4-1.8-2.4-2.7 0-.9.9-1.7 2.2-1.7.2 0 .4 0 .6.1l1.4 2.7c1.3 0 2.1-.8 2.1-1.9 0-1.3-1.3-2.2-3.5-2.2-3.4 0-6 2.1-6 4.8 0 1.5 1 2.4 2.9 3.7 1.4 1 2.5 1.5 2.5 3.1 0 1.2-.9 2.2-2.3 2.2-.7 0-1.3-.2-2-.7l.5-2.2c-.5-.5-1-.7-1.7-.7-1 0-1.8.8-1.8 1.9.2 1.6 2 3 4.8 3zM35.5 71.6l-9.2 17.7-2.9-18.2.1-.1-.4-2.5h-7v1.8l2.2.3.3.5 3.9 23.7h3.8l12.4-23.2z"/><path fill="#FFF" d="M94.3 98.6C96 97.7 97 96.3 97 95c0-1.5-.9-2.4-2.7-3.3l-4.6-2.2v-.1c0-.4.1-.8.4-1.1 4.1 0 6.8-2.5 6.8-5.8 0-.5-.1-1.1-.3-1.7h3.1v-1.6h-4.1c-1.2-.6-2.5-.9-3.7-.9-3.9 0-6.7 2.6-6.7 5.8 0 2 1.2 3.4 3.4 4-.8 1.1-1.3 2-1.3 3.1v.1c-3 1.2-4.4 2.5-4.4 4.4 0 1.1.5 2.1 1.5 2.8H67.2v.9h97.7v-.9H94.3zm-2.6-19c1.1 0 1.7.8 1.7 2.3 0 2.8-1.6 5-3 5-1.1 0-1.7-.8-1.7-2.3 0-2.7 1.5-5 3-5zm-1.8 18.6c-2.4 0-3.9-1.4-3.9-3.3 0-1.1.6-2 1.9-2.7l3.6 1.7c1.2.5 1.8 1.2 1.8 1.9.1 1.4-1.3 2.4-3.4 2.4z"/></svg>