<?xml version="1.0" encoding="utf-8"?>
<svg viewBox="0 0 500 500" xmlns="http://www.w3.org/2000/svg">
  <defs>
    <clipPath id="clipPath104" clipPathUnits="userSpaceOnUse">
      <path id="path102" d="m 2898.25,3070.78 c -1.11,-11.34 -16.61,-129.74 -138.36,-129.74 -127.81,0 -106.4,126.55 -106.4,126.55 l -0.16,0.79 c 12.46,2.56 25.88,3.52 40.1,1.92 v 59.91 l 145.08,81.17 h 5.27 v -139.8 c 0,0 23,2.72 54.47,-0.8 z"/>
    </clipPath>
    <radialGradient id="radialGradient110" spreadMethod="pad" gradientTransform="matrix(129.255,0,0,-129.255,2775.2,3076.21)" gradientUnits="userSpaceOnUse" r="1" cy="0" cx="0">
      <stop id="stop106" offset="0" style="stop-opacity:1;stop-color:#fabda6"/>
      <stop id="stop108" offset="1" style="stop-opacity:1;stop-color:#f9ad90"/>
    </radialGradient>
    <clipPath id="clipPath120" clipPathUnits="userSpaceOnUse">
      <path id="path118" d="m 2827.79,3478.83 c 20.58,-20.86 36.13,-47.85 43.61,-80.84 13.94,-61.46 0.83,-126.49 -17.01,-185.72 -3.04,-10.14 -6.51,-20.36 -12.77,-28.89 -4.46,-6.08 -10.21,-11.09 -15.91,-16.05 -25.8,-22.47 -51.6,-44.95 -77.34,-67.49 -17.46,-15.27 -124.89,-28 -145.4,-13.35 -79.01,56.5 -94.22,220.18 -78.41,303.87 26.24,138.82 204.67,188.45 303.23,88.47 z"/>
    </clipPath>
    <radialGradient id="radialGradient126" spreadMethod="pad" gradientTransform="matrix(199.211,42.8947,42.8947,-199.211,2700.42,3310.17)" gradientUnits="userSpaceOnUse" r="1" cy="0" cx="0">
      <stop id="stop122" offset="0" style="stop-opacity:1;stop-color:#fabda6"/>
      <stop id="stop124" offset="1" style="stop-opacity:1;stop-color:#f9ad90"/>
    </radialGradient>
    <clipPath id="clipPath162" clipPathUnits="userSpaceOnUse">
      <path id="path160" d="m 2543.24,1200.98 42.18,-96.19 -129.25,-56.72 -42.34,96.5 z"/>
    </clipPath>
    <radialGradient id="radialGradient168" spreadMethod="pad" gradientTransform="matrix(81.2587,0,0,-81.2587,2499.63,1124.52)" gradientUnits="userSpaceOnUse" r="1" cy="0" cx="0">
      <stop id="stop164" offset="0" style="stop-opacity:1;stop-color:#fabda6"/>
      <stop id="stop166" offset="1" style="stop-opacity:1;stop-color:#f9ad90"/>
    </radialGradient>
    <clipPath id="clipPath180" clipPathUnits="userSpaceOnUse">
      <path id="path178" d="m 2050.48,1176.23 10.1,-144.5 h -141.09 l -10.1,144.82 z"/>
    </clipPath>
    <radialGradient id="radialGradient186" spreadMethod="pad" gradientTransform="matrix(74.0153,0,0,-74.0153,1984.99,1104.14)" gradientUnits="userSpaceOnUse" r="1" cy="0" cx="0">
      <stop id="stop182" offset="0" style="stop-opacity:1;stop-color:#fabda6"/>
      <stop id="stop184" offset="1" style="stop-opacity:1;stop-color:#f9ad90"/>
    </radialGradient>
    <clipPath id="clipPath206" clipPathUnits="userSpaceOnUse">
      <path id="path204" d="m 2314.61,2462.53 -2.08,-69.98 h -255.64 c 0,0 25.41,99.86 94.59,99.86 69.18,0 95.86,-36.59 95.86,-36.59 z"/>
    </clipPath>
    <radialGradient id="radialGradient212" spreadMethod="pad" gradientTransform="matrix(409.202,-65.6975,-65.6975,-409.202,2435.61,2493.03)" gradientUnits="userSpaceOnUse" r="1" cy="0" cx="0">
      <stop id="stop208" offset="0" style="stop-opacity:1;stop-color:#fabda6"/>
      <stop id="stop210" offset="1" style="stop-opacity:1;stop-color:#f9ad90"/>
    </radialGradient>
    <clipPath id="clipPath228" clipPathUnits="userSpaceOnUse">
      <path id="path226" d="m 2984.21,2504.39 -250.36,88.68 c -18.22,-34.04 -37.71,-59.6 -57.03,-64.72 -29.24,-7.66 -99.87,-20.92 -171.13,-33.38 -9.42,-1.76 -18.84,-3.36 -28.27,-5.12 -84.84,-14.69 -162.81,-27.32 -162.81,-27.32 l -0.16,-4.15 v -2.72 l -1.92,-63.11 v -16.02 c 0,0 85,4.36 192.21,-3.15 150.03,-10.7 343.51,-17.1 407.57,13.09 30.04,14.23 54.01,60.88 72.87,118.4 z"/>
    </clipPath>
    <radialGradient id="radialGradient234" spreadMethod="pad" gradientTransform="matrix(409.199,-65.6972,-65.6972,-409.199,2435.61,2493.03)" gradientUnits="userSpaceOnUse" r="1" cy="0" cx="0">
      <stop id="stop230" offset="0" style="stop-opacity:1;stop-color:#fabda6"/>
      <stop id="stop232" offset="1" style="stop-opacity:1;stop-color:#f9ad90"/>
    </radialGradient>
    <clipPath id="clipPath282" clipPathUnits="userSpaceOnUse">
      <path id="path280" d="m 3931.83,1627.85 c -17.15,-83.25 -11.99,-225.06 -122.12,-247.52 -29.66,-6.04 -58.31,14.51 -75.55,38.07 -22.56,30.83 -27.96,96.08 -27.57,133.41 0.31,29.58 10.4,62.56 13.64,92.41 3.52,32.23 6.37,64.53 10.13,96.74 13.55,116.08 74.19,213.37 176.76,271.32 7.94,-38.11 26.03,-70.36 41.99,-106.95 7.28,-16.68 13.84,-34.27 18.58,-51.75 8.38,-30.95 -1.76,-62.23 -9.29,-91.88 -11.13,-43.83 -17.43,-89.51 -26.57,-133.85 z"/>
    </clipPath>
    <linearGradient id="linearGradient288" spreadMethod="pad" gradientTransform="matrix(0.0271745,-633.004,-633.004,-0.0271745,3838.69,2012.27)" gradientUnits="userSpaceOnUse" y2="0" x2="1" y1="0" x1="0">
      <stop id="stop284" offset="0" style="stop-opacity:1;stop-color:#5c60b6"/>
      <stop id="stop286" offset="1" style="stop-opacity:1;stop-color:#523ea0"/>
    </linearGradient>
    <clipPath id="clipPath300" clipPathUnits="userSpaceOnUse">
      <path id="path298" d="m 3583.28,1651.69 c 19.59,-82.72 84.12,-209.09 -6.24,-275.95 -24.33,-18 -58.98,-11.44 -84.56,2.64 -33.46,18.42 -65.9,75.3 -81.29,109.31 -12.21,26.95 -16.98,61.11 -26.63,89.53 -10.43,30.7 -21.47,61.19 -31.66,91.97 -36.71,110.96 -22.79,224.75 45.74,320.58 23.27,-31.2 53.3,-52.8 83.21,-79.23 13.62,-12.05 27,-25.24 38.67,-39.08 20.67,-24.53 24.68,-57.16 30.36,-87.22 8.41,-44.44 21.98,-88.51 32.4,-132.55 z"/>
    </clipPath>
    <linearGradient id="linearGradient306" spreadMethod="pad" gradientTransform="matrix(267.194,-573.847,-573.847,-267.194,3336.6,1960.88)" gradientUnits="userSpaceOnUse" y2="0" x2="1" y1="0" x1="0">
      <stop id="stop302" offset="0" style="stop-opacity:1;stop-color:#5c60b6"/>
      <stop id="stop304" offset="1" style="stop-opacity:1;stop-color:#523ea0"/>
    </linearGradient>
    <clipPath id="clipPath318" clipPathUnits="userSpaceOnUse">
      <path id="path316" d="m 3774.17,1715.8 c 4.65,-105.1 53.85,-273.67 -71.48,-334.01 -33.76,-16.25 -74.36,-0.27 -102.19,22.77 -36.42,30.15 -62.69,106.81 -73.53,151.71 -8.59,35.59 -6.49,78.22 -11.64,115.01 -5.56,39.74 -11.93,79.36 -17.19,119.15 -18.93,143.38 24.33,278.5 129.83,379.12 21.07,-43.31 52.58,-76.52 82.8,-115.59 13.79,-17.8 26.99,-36.92 37.98,-56.45 19.45,-34.6 16.76,-75.21 16.71,-113.06 -0.06,-55.96 6.23,-112.69 8.71,-168.65 z"/>
    </clipPath>
    <linearGradient id="linearGradient324" spreadMethod="pad" gradientTransform="matrix(191.938,-759.499,-759.499,-191.938,3545.88,2148.8)" gradientUnits="userSpaceOnUse" y2="0" x2="1" y1="0" x1="0">
      <stop id="stop320" offset="0" style="stop-opacity:1;stop-color:#5c60b6"/>
      <stop id="stop322" offset="1" style="stop-opacity:1;stop-color:#523ea0"/>
    </linearGradient>
  </defs>
  <g transform="matrix(1.333333, 0, 0, -1.333333, -17.396095, 549.94381)" id="g10">
    <g transform="scale(0.1)" id="g12">
      <path id="path14" style="fill: rgb(251, 253, 254); fill-opacity: 1; fill-rule: nonzero; stroke: none;" d="M 186.995 1049.361 L 3883.251 1049.361 L 3883.251 3605.06 L 186.995 3605.06 L 186.995 1049.361 Z"/>
      <path id="path16" style="fill: rgb(221, 236, 241); fill-opacity: 1; fill-rule: nonzero; stroke: none;" d="M 3583.513 1955.372 L 3466.955 1183.808 L 503.18 1183.808 L 415.65 1772.407 C 405.917 1838.351 444.589 1902.259 509.851 1927.844 L 772.894 2030.752 L 772.894 2277.382 C 772.894 2350.044 829.322 2411.653 905.591 2422.106 L 967.784 2430.692 L 1072.263 2763.742 C 1091.735 2825.957 1152.316 2868.525 1221.007 2868.525 L 2289.669 2868.525 C 2330.32 2868.525 2367.549 2853.743 2395.315 2829.434 C 2423.081 2805.041 2441.385 2771.136 2444.356 2732.895 L 2953.22 2682.242 C 3028.765 2674.681 3087.357 2616.807 3091.867 2545.331 L 3112.418 2212.533 L 3472.005 2116.761 C 3546.823 2096.877 3594.417 2027.868 3583.513 1955.372"/>
      <path id="path18" style="fill: rgb(207, 220, 228); fill-opacity: 1; fill-rule: nonzero; stroke: none;" d="M 680.869 1796.249 L 773.385 1183.808 L 3125.909 1183.808 L 3195.391 1651.01 C 3203.124 1703.362 3172.423 1754.085 3120.616 1774.387 L 2911.823 1856.081 L 2911.823 2051.841 C 2911.823 2109.512 2867.039 2158.423 2806.502 2166.716 L 2757.126 2173.532 L 2674.198 2437.899 C 2658.74 2487.277 2610.659 2521.07 2556.131 2521.07 L 1707.871 2521.07 C 1675.603 2521.07 1646.054 2509.334 1624.01 2490.044 C 1601.973 2470.682 1587.446 2443.768 1585.088 2413.409 L 1181.169 2373.21 C 1121.209 2367.203 1074.694 2321.267 1071.116 2264.531 L 1054.801 2000.373 L 769.38 1924.351 C 709.988 1908.56 672.209 1853.788 680.869 1796.249"/>
      <path id="path20" style="fill: rgb(189, 208, 216); fill-opacity: 1; fill-rule: nonzero; stroke: none;" d="M 2621.681 1412.018 C 2621.681 1478.031 2570.413 1534.002 2501.139 1543.501 L 2444.63 1551.299 L 2349.711 1853.864 C 2332.028 1910.372 2276.991 1949.051 2214.59 1949.051 L 1243.761 1949.051 C 1206.828 1949.051 1173 1935.621 1147.784 1913.536 C 1122.562 1891.38 1105.935 1860.576 1103.229 1825.834 L 682.911 1783.997 L 773.581 1183.808 L 2632.333 1183.808 L 2621.681 1187.976 L 2621.681 1412.018"/>
      <path id="path22" style="fill: rgb(25, 41, 65); fill-opacity: 1; fill-rule: nonzero; stroke: none;" d="M 1029.771 2752.751 L 1750.947 2752.751 L 1750.947 3387.33 L 1029.771 3387.33 L 1029.771 2752.751 Z"/>
      <path id="path24" style="fill: rgb(44, 70, 102); fill-opacity: 1; fill-rule: nonzero; stroke: none;" d="M 1029.771 3320.22 L 1750.947 3320.22 L 1750.947 3387.332 L 1029.771 3387.332 L 1029.771 3320.22 Z"/>
      <path id="path26" style="fill: rgb(92, 96, 182); fill-opacity: 1; fill-rule: nonzero; stroke: none;" d="M 1595.053 3353.017 C 1595.053 3346.222 1589.214 3340.709 1582.013 3340.709 C 1574.798 3340.709 1568.958 3346.222 1568.958 3353.017 C 1568.958 3359.812 1574.798 3365.318 1582.013 3365.318 C 1589.214 3365.318 1595.053 3359.812 1595.053 3353.017"/>
      <path id="path28" style="fill: rgb(248, 207, 62); fill-opacity: 1; fill-rule: nonzero; stroke: none;" d="M 1649.543 3353.017 C 1649.543 3346.222 1643.703 3340.709 1636.495 3340.709 C 1629.288 3340.709 1623.448 3346.222 1623.448 3353.017 C 1623.448 3359.812 1629.288 3365.318 1636.495 3365.318 C 1643.703 3365.318 1649.543 3359.812 1649.543 3353.017"/>
      <path id="path30" style="fill: rgb(244, 107, 111); fill-opacity: 1; fill-rule: nonzero; stroke: none;" d="M 1700.138 3351.721 C 1700.138 3344.925 1694.298 3339.419 1687.09 3339.419 C 1679.882 3339.419 1674.043 3344.925 1674.043 3351.721 C 1674.043 3358.515 1679.882 3364.021 1687.09 3364.021 C 1694.298 3364.021 1700.138 3358.515 1700.138 3351.721"/>
      <path id="path32" style="fill: rgb(244, 107, 111); fill-opacity: 1; fill-rule: nonzero; stroke: none;" d="M 1260.151 3249.738 L 1158.008 3249.738 L 1158.008 3257.829 L 1260.151 3257.829 L 1260.151 3249.738"/>
      <path id="path34" style="fill: rgb(248, 207, 62); fill-opacity: 1; fill-rule: nonzero; stroke: none;" d="M 1380.035 3249.738 L 1277.893 3249.738 L 1277.893 3257.829 L 1380.035 3257.829 L 1380.035 3249.738"/>
      <path id="path36" style="fill: rgb(92, 96, 182); fill-opacity: 1; fill-rule: nonzero; stroke: none;" d="M 1347.988 3206.139 L 1189.604 3206.139 L 1189.604 3214.23 L 1347.988 3214.23 L 1347.988 3206.139"/>
      <path id="path38" style="fill: rgb(244, 107, 111); fill-opacity: 1; fill-rule: nonzero; stroke: none;" d="M 1454.691 3206.139 L 1374.18 3206.139 L 1374.18 3214.23 L 1454.691 3214.23 L 1454.691 3206.139"/>
      <path id="path40" style="fill: rgb(248, 207, 62); fill-opacity: 1; fill-rule: nonzero; stroke: none;" d="M 1314.108 3162.539 L 1244.545 3162.539 L 1244.545 3170.637 L 1314.108 3170.637 L 1314.108 3162.539"/>
      <path id="path42" style="fill: rgb(248, 207, 62); fill-opacity: 1; fill-rule: nonzero; stroke: none;" d="M 1585.095 3162.539 L 1354.317 3162.539 L 1354.317 3170.637 L 1585.095 3170.637 L 1585.095 3162.539"/>
      <path id="path44" style="fill: rgb(92, 96, 182); fill-opacity: 1; fill-rule: nonzero; stroke: none;" d="M 1562.319 3118.945 L 1298.577 3118.945 L 1298.577 3127.037 L 1562.319 3127.037 L 1562.319 3118.945"/>
      <path id="path46" style="fill: rgb(244, 107, 111); fill-opacity: 1; fill-rule: nonzero; stroke: none;" d="M 1313.805 3075.346 L 1232.636 3075.346 L 1232.636 3083.438 L 1313.805 3083.438 L 1313.805 3075.346"/>
      <path id="path48" style="fill: rgb(92, 96, 182); fill-opacity: 1; fill-rule: nonzero; stroke: none;" d="M 1429.705 3075.346 L 1348.535 3075.346 L 1348.535 3083.438 L 1429.705 3083.438 L 1429.705 3075.346"/>
      <path id="path50" style="fill: rgb(244, 107, 111); fill-opacity: 1; fill-rule: nonzero; stroke: none;" d="M 1276.096 2857.242 L 1158.008 2857.242 L 1158.008 2849.151 L 1276.096 2849.151 L 1276.096 2857.242"/>
      <path id="path52" style="fill: rgb(248, 207, 62); fill-opacity: 1; fill-rule: nonzero; stroke: none;" d="M 1435.531 2857.242 L 1317.45 2857.242 L 1317.45 2849.151 L 1435.531 2849.151 L 1435.531 2857.242"/>
      <path id="path54" style="fill: rgb(244, 107, 111); fill-opacity: 1; fill-rule: nonzero; stroke: none;" d="M 1590.677 2857.242 L 1472.597 2857.242 L 1472.597 2849.151 L 1590.677 2849.151 L 1590.677 2857.242"/>
      <path id="path56" style="fill: rgb(92, 96, 182); fill-opacity: 1; fill-rule: nonzero; stroke: none;" d="M 1420.376 2900.841 L 1189.604 2900.841 L 1189.604 2892.75 L 1420.376 2892.75 L 1420.376 2900.841"/>
      <path id="path58" style="fill: rgb(244, 107, 111); fill-opacity: 1; fill-rule: nonzero; stroke: none;" d="M 1687.127 2900.841 L 1456.362 2900.841 L 1456.362 2892.75 L 1687.127 2892.75 L 1687.127 2900.841"/>
      <path id="path60" style="fill: rgb(244, 107, 111); fill-opacity: 1; fill-rule: nonzero; stroke: none;" d="M 1473.551 2944.441 L 1244.545 2944.441 L 1244.545 2936.35 L 1473.551 2936.35 L 1473.551 2944.441"/>
      <path id="path62" style="fill: rgb(248, 207, 62); fill-opacity: 1; fill-rule: nonzero; stroke: none;" d="M 1557.256 2944.441 L 1493.517 2944.441 L 1493.517 2936.35 L 1557.256 2936.35 L 1557.256 2944.441"/>
      <path id="path64" style="fill: rgb(248, 207, 62); fill-opacity: 1; fill-rule: nonzero; stroke: none;" d="M 1315.802 2988.042 L 1229.59 2988.042 L 1229.59 2979.951 L 1315.802 2979.951 L 1315.802 2988.042"/>
      <path id="path66" style="fill: rgb(92, 96, 182); fill-opacity: 1; fill-rule: nonzero; stroke: none;" d="M 1447.794 2988.042 L 1361.584 2988.042 L 1361.584 2979.951 L 1447.794 2979.951 L 1447.794 2988.042"/>
      <path id="path68" style="fill: rgb(244, 107, 111); fill-opacity: 1; fill-rule: nonzero; stroke: none;" d="M 1589.45 2988.042 L 1503.239 2988.042 L 1503.239 2979.951 L 1589.45 2979.951 L 1589.45 2988.042"/>
      <path id="path70" style="fill: rgb(248, 207, 62); fill-opacity: 1; fill-rule: nonzero; stroke: none;" d="M 1450.411 3031.641 L 1329.522 3031.641 L 1329.522 3023.543 L 1450.411 3023.543 L 1450.411 3031.641"/>
      <path id="path72" style="fill: rgb(92, 96, 182); fill-opacity: 1; fill-rule: nonzero; stroke: none;" d="M 1283.918 3031.641 L 1163.035 3031.641 L 1163.035 3023.543 L 1283.918 3023.543 L 1283.918 3031.641"/>
      <path id="path74" style="fill: rgb(251, 253, 254); fill-opacity: 1; fill-rule: nonzero; stroke: none;" d="M 1102.143 3255.245 L 1091.158 3255.245 L 1091.158 3265.608 L 1102.143 3265.608 L 1102.143 3255.245"/>
      <path id="path76" style="fill: rgb(251, 253, 254); fill-opacity: 1; fill-rule: nonzero; stroke: none;" d="M 1102.143 3202.424 L 1091.158 3202.424 L 1091.158 3223.548 L 1102.143 3223.548 L 1102.143 3202.424 Z M 1102.143 3149.604 L 1091.158 3149.604 L 1091.158 3170.728 L 1102.143 3170.728 L 1102.143 3149.604 Z M 1102.143 3096.777 L 1091.158 3096.777 L 1091.158 3117.908 L 1102.143 3117.908 L 1102.143 3096.777 Z M 1102.143 3043.956 L 1091.158 3043.956 L 1091.158 3065.087 L 1102.143 3065.087 L 1102.143 3043.956 Z M 1102.143 2991.136 L 1091.158 2991.136 L 1091.158 3012.259 L 1102.143 3012.259 L 1102.143 2991.136 Z M 1102.143 2938.309 L 1091.158 2938.309 L 1091.158 2959.432 L 1102.143 2959.432 L 1102.143 2938.309 Z M 1102.143 2885.488 L 1091.158 2885.488 L 1091.158 2906.613 L 1102.143 2906.613 L 1102.143 2885.488"/>
      <path id="path78" style="fill: rgb(251, 253, 254); fill-opacity: 1; fill-rule: nonzero; stroke: none;" d="M 1102.143 2843.428 L 1091.158 2843.428 L 1091.158 2853.792 L 1102.143 2853.792 L 1102.143 2843.428"/>
      <path id="path80" style="fill: rgb(244, 107, 111); fill-opacity: 1; fill-rule: nonzero; stroke: none;" d="M 2499.956 3177.055 L 1906.115 3177.055 L 1906.115 3522.141 L 2499.956 3522.141 L 2499.956 3177.055"/>
      <path id="path82" style="fill: rgb(251, 253, 254); fill-opacity: 1; fill-rule: nonzero; stroke: none;" d="M 2136.755 3383.347 L 2066.097 3354.912 L 2136.755 3326.903 L 2127.507 3306.782 L 2042.773 3342.465 L 2042.773 3367.157 L 2127.507 3403.057 L 2136.755 3383.347"/>
      <path id="path84" style="fill: rgb(251, 253, 254); fill-opacity: 1; fill-rule: nonzero; stroke: none;" d="M 2240.878 3449.117 L 2189.596 3263.412 L 2165.164 3268.806 L 2216.668 3454.301 L 2240.878 3449.117"/>
      <path id="path86" style="fill: rgb(251, 253, 254); fill-opacity: 1; fill-rule: nonzero; stroke: none;" d="M 2363.491 3367.157 L 2363.491 3342.465 L 2278.757 3306.782 L 2269.517 3326.903 L 2339.946 3354.912 L 2269.517 3383.347 L 2278.757 3403.057 L 2363.491 3367.157"/>
      <path id="path88" style="fill: rgb(92, 96, 182); fill-opacity: 1; fill-rule: nonzero; stroke: none;" d="M 2817.797 2626.44 L 2479.567 2626.44 L 2479.567 2853.61 L 2817.797 2853.61 L 2817.797 2626.44"/>
      <path id="path90" style="fill: rgb(244, 246, 245); fill-opacity: 1; fill-rule: nonzero; stroke: none;" d="M 2621.045 2804.568 C 2610.171 2804.568 2606.534 2801.801 2606.534 2794.149 L 2606.534 2759.957 C 2606.534 2746.604 2600.663 2742.534 2590.817 2739.927 C 2600.663 2737.488 2606.534 2733.418 2606.534 2720.232 L 2606.534 2686.041 C 2606.534 2678.388 2610.34 2675.622 2621.045 2675.622 L 2621.045 2660.638 C 2593.582 2660.638 2585.813 2668.945 2585.813 2686.201 L 2585.813 2718.602 C 2585.813 2727.885 2583.226 2731.467 2574.243 2731.467 L 2574.243 2748.562 C 2583.226 2748.562 2585.813 2752.305 2585.813 2761.588 L 2585.813 2793.989 C 2585.813 2811.404 2593.582 2819.544 2621.045 2819.544 L 2621.045 2804.568"/>
      <path id="path92" style="fill: rgb(244, 246, 245); fill-opacity: 1; fill-rule: nonzero; stroke: none;" d="M 2711.544 2793.989 L 2711.544 2761.588 C 2711.544 2752.305 2714.131 2748.562 2723.284 2748.562 L 2723.284 2731.467 C 2714.131 2731.467 2711.544 2727.885 2711.544 2718.602 L 2711.544 2686.201 C 2711.544 2668.945 2703.775 2660.638 2676.319 2660.638 L 2676.319 2675.622 C 2687.024 2675.622 2690.823 2678.388 2690.823 2686.041 L 2690.823 2720.232 C 2690.823 2733.418 2696.693 2737.488 2706.54 2739.927 C 2696.693 2742.534 2690.823 2746.604 2690.823 2759.957 L 2690.823 2794.149 C 2690.823 2801.801 2687.201 2804.568 2676.319 2804.568 L 2676.319 2819.544 C 2703.775 2819.544 2711.544 2811.404 2711.544 2793.989"/>
      <path id="path94" style="fill: rgb(248, 207, 62); fill-opacity: 1; fill-rule: nonzero; stroke: none;" d="M 1179.705 3233.382 L 800.249 3233.382 L 800.249 3472.652 L 1179.705 3472.652 L 1179.705 3233.382"/>
      <path id="path96" style="fill: rgb(251, 253, 254); fill-opacity: 1; fill-rule: nonzero; stroke: none;" d="M 1005.767 3338.102 C 988.594 3321.919 960.658 3321.919 943.485 3338.109 C 926.312 3354.299 926.312 3380.629 943.485 3396.819 C 960.658 3413.009 988.594 3413.009 1005.767 3396.819 C 1022.939 3380.629 1022.939 3354.292 1005.767 3338.102 Z M 925.832 3403.97 C 907.712 3382.587 907.994 3351.358 926.453 3330.241 C 947.425 3306.252 983.353 3302.385 1009.168 3318.609 L 1048.998 3281.065 C 1050.676 3279.484 1053.397 3279.484 1055.082 3281.065 L 1066.268 3291.617 C 1067.953 3293.199 1067.953 3295.77 1066.268 3297.353 L 1026.444 3334.897 C 1042.575 3357.7 1039.986 3388.88 1018.667 3408.98 C 992.719 3433.442 949.399 3431.77 925.832 3403.97"/>
      <g id="g98" transform="matrix(0.739251, 0, 0, 0.696931, 140.960556, 593.467468)" style="">
        <g clip-path="url(#clipPath104)" id="g100">
          <path id="path112" style="fill:url(#radialGradient110);fill-opacity:1;fill-rule:nonzero;stroke:none" d="m 2898.25,3070.78 c -1.11,-11.34 -16.61,-129.74 -138.36,-129.74 -127.81,0 -106.4,126.55 -106.4,126.55 l -0.16,0.79 c 12.46,2.56 25.88,3.52 40.1,1.92 v 59.91 l 145.08,81.17 h 5.27 v -139.8 c 0,0 23,2.72 54.47,-0.8"/>
        </g>
      </g>
      <g id="g114" transform="matrix(0.739251, 0, 0, 0.696931, 140.960556, 593.467468)" style="">
        <g clip-path="url(#clipPath120)" id="g116">
          <path id="path128" style="fill:url(#radialGradient126);fill-opacity:1;fill-rule:nonzero;stroke:none" d="m 2827.79,3478.83 c 20.58,-20.86 36.13,-47.85 43.61,-80.84 13.94,-61.46 0.83,-126.49 -17.01,-185.72 -3.04,-10.14 -6.51,-20.36 -12.77,-28.89 -4.46,-6.08 -10.21,-11.09 -15.91,-16.05 -25.8,-22.47 -51.6,-44.95 -77.34,-67.49 -17.46,-15.27 -124.89,-28 -145.4,-13.35 -79.01,56.5 -94.22,220.18 -78.41,303.87 26.24,138.82 204.67,188.45 303.23,88.47"/>
        </g>
      </g>
      <path id="path130" style="fill: rgb(247, 163, 136); fill-opacity: 1; fill-rule: nonzero; stroke: none;" d="M 2198.608 2894.158 C 2199.384 2903.469 2209.541 2913.666 2219.735 2907.623 C 2230.292 2901.364 2227.808 2884.827 2223.432 2875.731 C 2220.001 2868.588 2208.536 2860.775 2200.759 2867.41 C 2194.253 2872.978 2204.366 2879.536 2204.698 2884.617 C 2205.002 2889.188 2195.303 2892.464 2199.273 2897.357"/>
      <path id="path132" style="fill: rgb(247, 163, 136); fill-opacity: 1; fill-rule: nonzero; stroke: none;" d="M 2200.478 2851.094 C 2211.123 2848.084 2229.161 2855.736 2233.722 2869.717 C 2238.283 2883.697 2237.795 2899.657 2237.795 2899.657 C 2237.795 2899.657 2243.155 2887.001 2240.397 2866.636 C 2237.64 2846.279 2230.078 2826.883 2213.127 2826.626 C 2196.175 2826.375 2200.478 2851.094 2200.478 2851.094"/>
      <path id="path134" style="fill: rgb(56, 57, 124); fill-opacity: 1; fill-rule: nonzero; stroke: none;" d="M 2187.415 2865.584 L 2186.226 2865.249 C 2179.631 2864.378 2176.999 2871.898 2176.024 2876.603 C 2173.739 2887.592 2174.094 2898.716 2173.695 2909.832 C 2173.599 2912.62 2173.829 2916.097 2172.615 2918.718 C 2168.912 2926.711 2159.043 2931.904 2156.034 2940.163 C 2152.53 2949.766 2162.421 2959.349 2158.496 2969.859 C 2152.493 2985.964 2130.552 2989.666 2114.688 2989.491 C 2090.884 2989.226 2067.672 2985.066 2044.178 2981.63 C 2019.376 2977.998 1987.677 2974.556 1965.825 2989.344 C 1939.478 3007.166 1928.478 3053.616 1948.134 3079.04 C 1958.846 3092.909 1979.168 3100.289 1996.97 3100.672 C 2015.842 3101.084 2031.788 3090.476 2049.102 3085.138 C 2062.888 3080.886 2076.225 3093.319 2089.109 3095.745 C 2105.314 3098.798 2112.189 3082.128 2126.523 3081.674 C 2140.443 3081.228 2154.097 3091.48 2167.633 3093.808 C 2194.623 3098.456 2193.034 3072.9 2211.138 3064.174 C 2222.397 3058.746 2236.931 3062.034 2248.315 3056.522 C 2256.964 3052.333 2258.177 3044.974 2260.062 3036.639 C 2261.695 3029.425 2261.784 3021.104 2264.305 3014.252 C 2266.567 3008.092 2272.052 3004.203 2276.332 2999.387 C 2281.005 2994.125 2283.991 2987.992 2286.357 2981.4 C 2291.613 2966.778 2292.781 2951.006 2291.347 2935.702 C 2288.944 2910.013 2280.17 2884.722 2271.069 2860.524 C 2265.163 2844.83 2262.967 2828.479 2253.882 2813.621 C 2251.442 2809.627 2240.605 2797.961 2236.576 2806.652 C 2235.711 2808.512 2235.844 2810.631 2235.992 2812.659 C 2237.197 2828.849 2253.179 2933.137 2211.27 2920.613 C 2202.474 2917.979 2196.575 2911.079 2193.292 2903.211 C 2189.375 2893.788 2189.101 2884.304 2189.596 2874.351 C 2189.67 2872.93 2189.707 2871.501 2189.649 2870.079 C 2189.575 2868.239 2189.086 2866.371 2187.415 2865.584"/>
      <path id="path136" style="fill: rgb(247, 163, 136); fill-opacity: 1; fill-rule: nonzero; stroke: none;" d="M 2132.082 2742.806 C 2179.734 2750.025 2211.175 2785.513 2211.175 2785.513 C 2211.175 2785.513 2198.326 2725.71 2129.222 2722.546 L 2132.082 2742.806"/>
      <path id="path138" style="fill: rgb(22, 32, 45); fill-opacity: 1; fill-rule: nonzero; stroke: none;" d="M 2210.303 1927.6 L 2278.506 1927.6 L 2278.506 1310.635 C 2278.506 1304.384 2273.124 1299.304 2266.485 1299.304 L 2222.323 1299.304 C 2215.677 1299.304 2210.303 1304.384 2210.303 1310.635 L 2210.303 1927.6"/>
      <path id="path140" style="fill: rgb(47, 65, 91); fill-opacity: 1; fill-rule: nonzero; stroke: none;" d="M 2056.849 1918.776 L 2431.959 1918.776 L 2431.959 1909.124 C 2431.959 1884.822 2411.061 1865.12 2385.284 1865.12 L 2103.525 1865.12 C 2077.748 1865.12 2056.849 1884.822 2056.849 1909.124 L 2056.849 1918.776"/>
      <path id="path142" style="fill: rgb(22, 32, 45); fill-opacity: 1; fill-rule: nonzero; stroke: none;" d="M 2210.303 1372.453 L 2278.506 1372.453 L 2278.506 1229.491 C 2278.506 1223.232 2273.124 1218.161 2266.485 1218.161 L 2222.323 1218.161 C 2215.677 1218.161 2210.303 1223.232 2210.303 1229.491 L 2210.303 1372.453"/>
      <path id="path144" style="fill: rgb(22, 32, 45); fill-opacity: 1; fill-rule: nonzero; stroke: none;" d="M 1890.451 1255.795 C 1890.451 1235.013 1908.326 1218.161 1930.378 1218.161 C 1952.415 1218.161 1970.29 1235.013 1970.29 1255.795 C 1970.29 1276.583 1952.415 1293.428 1930.378 1293.428 C 1908.326 1293.428 1890.451 1276.583 1890.451 1255.795"/>
      <path id="path146" style="fill: rgb(22, 32, 45); fill-opacity: 1; fill-rule: nonzero; stroke: none;" d="M 2518.511 1255.795 C 2518.511 1235.013 2536.386 1218.161 2558.439 1218.161 C 2580.483 1218.161 2598.358 1235.013 2598.358 1255.795 C 2598.358 1276.583 2580.483 1293.428 2558.439 1293.428 C 2536.386 1293.428 2518.511 1276.583 2518.511 1255.795"/>
      <path id="path148" style="fill: rgb(47, 65, 91); fill-opacity: 1; fill-rule: nonzero; stroke: none;" d="M 2175.795 1307.332 L 2313.014 1307.332 L 2313.014 1420.374 L 2175.795 1420.374 L 2175.795 1307.332"/>
      <path id="path150" style="fill: rgb(248, 207, 62); fill-opacity: 1; fill-rule: nonzero; stroke: none;" d="M 1890.451 1280.73 L 2598.358 1280.73 L 2598.358 1293.846 C 2598.358 1315.988 2579.322 1333.927 2555.835 1333.927 L 1932.965 1333.927 C 1909.487 1333.927 1890.451 1315.988 1890.451 1293.846 L 1890.451 1280.73"/>
      <path id="path152" style="fill: rgb(47, 65, 91); fill-opacity: 1; fill-rule: nonzero; stroke: none;" d="M 2244.405 1430.465 L 2220.748 1430.465 L 2220.748 1852.443 L 2244.405 1852.443 L 2244.405 1430.465"/>
      <path id="path154" style="fill: rgb(248, 207, 62); fill-opacity: 1; fill-rule: nonzero; stroke: none;" d="M 2512.376 2374.799 C 2496.008 2375.287 2482.702 2362.512 2483.648 2347.103 C 2488.327 2270.51 2471.111 2083.663 2395.441 2019.915 C 2302.916 1941.964 2040.681 1952.584 2040.681 1952.584 C 2040.681 1952.584 1997.369 1902.475 2083.987 1891.345 C 2170.605 1880.209 2414.698 1887.624 2473.757 1939.587 C 2530.916 1989.891 2564.855 2121.674 2539.277 2351.048 C 2537.813 2364.199 2526.407 2374.388 2512.376 2374.799"/>
      <g id="g156" transform="matrix(0.739251, 0, 0, 0.696931, 140.960556, 593.467468)" style="">
        <g clip-path="url(#clipPath162)" id="g158">
          <path id="path170" style="fill:url(#radialGradient168);fill-opacity:1;fill-rule:nonzero;stroke:none" d="m 2543.24,1200.98 42.18,-96.19 -129.25,-56.72 -42.34,96.5 129.41,56.41"/>
        </g>
      </g>
      <path id="path172" style="fill: rgb(80, 75, 144); fill-opacity: 1; fill-rule: nonzero; stroke: none;" d="M 2471.65 2175.505 C 2465.751 2164.361 2041.199 2175.281 2001.094 2171.832 C 2001.094 2171.832 1741.255 2054.908 1703.93 1945.455 C 1700.145 1934.43 1699.088 1919.843 1700.271 1902.468 C 1710.658 1748.364 1896.808 1379.353 1896.808 1379.353 L 1925.388 1391.152 L 2021.054 1430.465 L 2034.642 1436.027 C 2034.642 1436.027 1886.999 1850.805 1916.532 1873.073 C 1946.057 1895.346 2280.664 1951.016 2396.764 1980.637 C 2512.989 2010.374 2471.65 2175.505 2471.65 2175.505"/>
      <g id="g174" transform="matrix(0.739251, 0, 0, 0.696931, 140.960556, 593.467468)" style="">
        <g clip-path="url(#clipPath180)" id="g176">
          <path id="path188" style="fill:url(#radialGradient186);fill-opacity:1;fill-rule:nonzero;stroke:none" d="m 2050.48,1176.23 10.1,-144.5 h -141.09 l -10.1,144.82 141.09,-0.32"/>
        </g>
      </g>
      <path id="path190" style="fill: rgb(56, 57, 124); fill-opacity: 1; fill-rule: nonzero; stroke: none;" d="M 1998.973 2175.281 L 1995.188 2173.72 C 1995.188 2173.72 1560.183 2116.147 1489.326 2001.126 C 1443.256 1926.304 1532.417 1379.541 1532.417 1379.541 L 1686.314 1379.207 C 1686.314 1379.207 1663.301 1834.664 1670.974 1860.047 C 1679.601 1889.004 1694.365 1899.472 1700.271 1902.468 C 1699.088 1919.843 1700.145 1934.43 1703.93 1945.455 C 1741.255 2054.908 2001.094 2171.832 2001.094 2171.832 C 2000.274 2172.382 1999.557 2173.609 1998.973 2175.281"/>
      <path id="path192" style="fill: rgb(244, 107, 111); fill-opacity: 1; fill-rule: nonzero; stroke: none;" d="M 2419.134 2554.202 L 2389.963 2550.418 C 2389.963 2550.418 2382.873 2476.258 2365.508 2402.098 L 2002.085 2272.043 L 1997.117 2247.211 C 1995.587 2247.324 1994.05 2247.435 1992.63 2247.546 C 1992.748 2242.424 1992.748 2237.413 1992.985 2232.737 C 1993.813 2204.114 1995.816 2183.52 1999.01 2175.281 C 1999.601 2173.609 2000.311 2172.382 2001.138 2171.832 C 2011.008 2164.243 2139.549 2178.948 2278.506 2130.845 C 2399.026 2089.12 2466.579 2043.555 2469.698 2049.674 C 2507.577 2123.912 2438.62 2415.235 2419.134 2554.202"/>
      <path id="path194" style="fill: rgb(241, 75, 83); fill-opacity: 1; fill-rule: nonzero; stroke: none;" d="M 2381.218 2384.284 C 2371.533 2340.413 2346.495 2253.116 2297.356 2241.42 C 2233.219 2226.054 2109.21 2226.833 1992.985 2232.737 C 1992.748 2237.413 1992.748 2242.424 1992.63 2247.546 C 1994.05 2247.435 1995.587 2247.324 1997.117 2247.211 L 2002.085 2272.043 L 2365.508 2402.098 C 2382.873 2476.258 2389.963 2550.418 2389.963 2550.418 C 2389.963 2550.418 2389.963 2549.972 2390.073 2549.192 C 2390.783 2537.72 2395.743 2449.085 2381.218 2384.284"/>
      <path id="path196" style="fill: rgb(241, 75, 83); fill-opacity: 1; fill-rule: nonzero; stroke: none;" d="M 2016.929 2663.656 C 2010.432 2652.525 2001.094 2533.378 1996.023 2415.123 L 1921.728 2480.488 C 1953.258 2538.055 2016.929 2663.656 2016.929 2663.656"/>
      <path id="path198" style="fill: rgb(247, 163, 136); fill-opacity: 1; fill-rule: nonzero; stroke: none;" d="M 1972.397 2328.718 C 1909.679 2318.48 1852.039 2309.678 1852.039 2309.678 L 1851.92 2306.785 C 1782.121 2359.341 1675.935 2508.213 1675.935 2508.213 C 1675.935 2508.213 1707.708 2544.181 1715.625 2553.645 C 1716.801 2555.095 1889.955 2442.742 1898.812 2443.746 C 1901.059 2443.962 1909.916 2458.661 1921.728 2480.488 L 1996.023 2415.123 C 1994.833 2386.953 1993.887 2358.895 1993.295 2332.285 C 1986.332 2331.059 1979.368 2329.945 1972.397 2328.718"/>
      <g id="g200" transform="matrix(0.739251, 0, 0, 0.696931, 140.960556, 593.467468)" style="">
        <g clip-path="url(#clipPath206)" id="g202">
          <path id="path214" style="fill:url(#radialGradient212);fill-opacity:1;fill-rule:nonzero;stroke:none" d="m 2314.61,2462.53 -2.08,-69.98 h -255.64 c 0,0 25.41,99.86 94.59,99.86 69.18,0 95.86,-36.59 95.86,-36.59 l 67.27,6.71"/>
        </g>
      </g>
      <path id="path216" style="fill: rgb(247, 163, 136); fill-opacity: 1; fill-rule: nonzero; stroke: none;" d="M 1714.199 2554.76 L 1715.625 2553.645 C 1707.708 2544.181 1675.935 2508.213 1675.935 2508.213 L 1656.212 2521.35 C 1656.212 2521.35 1634.478 2508.882 1609.202 2521.914 C 1582.863 2535.385 1599.164 2567.555 1600.516 2571.368 C 1595.408 2570.008 1563.85 2545.965 1558.889 2548.522 C 1553.929 2551.088 1550.27 2559.549 1585.576 2592.394 C 1620.779 2625.241 1668.727 2583.042 1670.146 2583.042 L 1714.199 2554.76"/>
      <path id="path218" style="fill: rgb(247, 163, 136); fill-opacity: 1; fill-rule: nonzero; stroke: none;" d="M 1613.314 2527.496 C 1613.314 2527.496 1605.698 2514.06 1619.235 2508.213 C 1632.77 2502.372 1659.103 2498.156 1670.42 2499.18 C 1681.731 2500.211 1690.728 2515.133 1690.728 2515.133 L 1656.464 2545.442 L 1629.074 2545.442 L 1613.314 2527.496"/>
      <path id="path220" style="fill: rgb(233, 137, 111); fill-opacity: 1; fill-rule: nonzero; stroke: none;" d="M 1611.288 2520.896 C 1613.314 2527.496 1632.77 2523.976 1644.828 2523.704 C 1653.714 2523.51 1658.578 2525.705 1661.32 2532.09 C 1664.07 2538.466 1651.171 2548.634 1648.634 2545.442 C 1646.098 2542.257 1653.285 2537.762 1653.498 2533.532 C 1653.714 2529.294 1640.813 2527.894 1630.87 2527.894 C 1620.927 2527.894 1603.776 2525.454 1603.776 2525.454 L 1611.288 2520.896"/>
      <g id="g222" transform="matrix(0.739251, 0, 0, 0.696931, 140.960556, 593.467468)" style="">
        <g clip-path="url(#clipPath228)" id="g224">
          <path id="path236" style="fill:url(#radialGradient234);fill-opacity:1;fill-rule:nonzero;stroke:none" d="m 2984.21,2504.39 -250.36,88.68 c -18.22,-34.04 -37.71,-59.6 -57.03,-64.72 -29.24,-7.66 -99.87,-20.92 -171.13,-33.38 -9.42,-1.76 -18.84,-3.36 -28.27,-5.12 -84.84,-14.69 -162.81,-27.32 -162.81,-27.32 l -0.16,-4.15 v -2.72 l -1.92,-63.11 v -16.02 c 0,0 85,4.36 192.21,-3.15 150.03,-10.7 343.51,-17.1 407.57,13.09 30.04,14.23 54.01,60.88 72.87,118.4 l -0.97,-0.48"/>
        </g>
      </g>
      <path id="path238" style="fill: rgb(247, 163, 136); fill-opacity: 1; fill-rule: nonzero; stroke: none;" d="M 2161.963 2400.655 L 2347.042 2338.851 L 2338.666 2315.539 L 2155.487 2389.616 L 2161.963 2400.655"/>
      <path id="path240" style="fill: rgb(244, 107, 111); fill-opacity: 1; fill-rule: nonzero; stroke: none;" d="M 2161.963 2400.655 C 2148.494 2376.931 2134.086 2359.118 2119.804 2355.55 C 2098.188 2350.211 2045.975 2340.97 1993.295 2332.285 C 1993.887 2358.895 1994.833 2386.953 1996.016 2415.123 C 2001.094 2533.378 2010.432 2652.525 2016.929 2663.656 C 2027.552 2682.257 2056.613 2722.671 2102.438 2731.913 L 2102.557 2731.362 C 2102.557 2731.362 2086.73 2643.166 2181.213 2643.166 C 2271.217 2643.166 2282.674 2725.683 2283.496 2733.585 C 2329.802 2728.686 2400.786 2706.865 2410.588 2619.122 C 2412.598 2601.748 2415.43 2579.48 2419.089 2554.202 L 2389.918 2550.418 C 2389.918 2550.418 2378.105 2426.818 2347.759 2339.185 L 2347.042 2338.851 L 2161.963 2400.655"/>
      <path id="path242" style="fill: rgb(247, 151, 139); fill-opacity: 1; fill-rule: nonzero; stroke: none;" d="M 2179.512 2409.917 L 2160.049 2416.733 L 2233.952 2585.39 L 2179.512 2409.917"/>
      <path id="path244" style="fill: rgb(244, 107, 111); fill-opacity: 1; fill-rule: nonzero; stroke: none;" d="M 2283.496 2733.585 L 2243.229 2733.585 C 2243.229 2733.585 2185.907 2674.256 2149.07 2674.256 C 2112.219 2674.256 2132.082 2733.251 2132.082 2733.251 L 2114.104 2733.251 C 2062.475 2733.251 2019.021 2696.696 2013.173 2648.33 C 2012.509 2642.789 2011.895 2637.534 2011.378 2632.782 C 2007.429 2596.889 2161.66 2570.769 2161.66 2570.769 L 2241.07 2574.958 L 2289.292 2663.656 L 2298.902 2699.979 L 2283.496 2733.585"/>
      <path id="path246" style="fill: rgb(244, 246, 245); fill-opacity: 1; fill-rule: nonzero; stroke: none;" d="M 1797.497 1246.74 C 1801.083 1228.607 1814.426 1215.708 1833.669 1219.094 L 2090.197 1264.199 C 2096.687 1265.343 2100.96 1271.223 2099.755 1277.344 L 2095.512 1298.801 C 2095.512 1298.801 1825.707 1254.29 1797.364 1246.88 L 1797.497 1246.74"/>
      <path id="path248" style="fill: rgb(56, 57, 124); fill-opacity: 1; fill-rule: nonzero; stroke: none;" d="M 1873.818 1307.638 C 1876.494 1309.828 1879.067 1312.002 1881.742 1314.183 C 1886.888 1318.525 1891.951 1322.755 1896.83 1326.846 C 1899.396 1329.014 1901.976 1331.188 1904.356 1333.23 C 1909.043 1337.181 1913.456 1340.889 1917.411 1344.22 C 1920.25 1346.632 1922.911 1348.918 1925.299 1350.96 C 1929.683 1354.667 1933.261 1357.686 1935.774 1359.812 C 1937.947 1361.644 1941.178 1361.727 1943.403 1359.958 C 1953.952 1351.601 1988.032 1332.491 2049.774 1368.501 C 2052.694 1370.209 2056.583 1369.317 2058.173 1366.439 L 2095.512 1298.801 C 2095.512 1298.801 1825.707 1254.29 1797.364 1246.88 C 1806.686 1252.36 1841.12 1280.452 1873.818 1307.638"/>
      <path id="path250" style="fill: rgb(244, 246, 245); fill-opacity: 1; fill-rule: nonzero; stroke: none;" d="M 1393.489 1249.118 C 1393.963 1230.67 1404.947 1215.928 1424.523 1216.39 L 1685.398 1222.392 C 1691.999 1222.545 1697.218 1227.709 1697.055 1233.924 L 1696.486 1255.746 C 1696.486 1255.746 1422.615 1252.33 1393.386 1249.27 L 1393.489 1249.118"/>
      <path id="path252" style="fill: rgb(56, 57, 124); fill-opacity: 1; fill-rule: nonzero; stroke: none;" d="M 1479.124 1297.77 C 1482.14 1299.533 1485.038 1301.283 1488.055 1303.039 C 1493.872 1306.558 1499.579 1309.974 1505.079 1313.277 C 1507.991 1315.033 1510.897 1316.789 1513.603 1318.441 C 1518.896 1321.647 1523.871 1324.644 1528.343 1327.334 C 1531.56 1329.299 1534.568 1331.16 1537.266 1332.805 C 1542.219 1335.809 1546.27 1338.255 1549.102 1339.969 C 1551.557 1341.454 1554.764 1341.057 1556.672 1338.973 C 1565.668 1329.139 1596.089 1305.151 1663.116 1331.432 C 1666.295 1332.672 1669.977 1331.209 1671.056 1328.128 L 1696.486 1255.746 C 1696.486 1255.746 1422.615 1252.33 1393.386 1249.27 C 1403.507 1253.286 1442.25 1275.845 1479.124 1297.77"/>
      <path id="path254" style="fill: rgb(169, 180, 184); fill-opacity: 1; fill-rule: nonzero; stroke: none;" d="M 1207.915 2249.742 L 1068.589 2600.047 L 1465.234 2600.047 L 1604.546 2249.742 L 1207.915 2249.742"/>
      <path id="path256" style="fill: rgb(127, 147, 159); fill-opacity: 1; fill-rule: nonzero; stroke: none;" d="M 1629.074 2249.742 L 1604.546 2249.742 L 1465.234 2600.047 L 1487.493 2599.113 L 1616.359 2282.038 L 1629.074 2249.742"/>
      <path id="path258" style="fill: rgb(127, 147, 159); fill-opacity: 1; fill-rule: nonzero; stroke: none;" d="M 1621.378 2249.742 L 1883.465 2249.742 L 1882.748 2271.828 C 1882.748 2271.828 1620.388 2271.828 1616.011 2271.828"/>
      <path id="path260" style="fill: rgb(127, 147, 159); fill-opacity: 1; fill-rule: nonzero; stroke: none;" d="M 2737.965 1205.608 L 2674.863 1205.608 L 2674.863 2182.935 L 2737.965 2182.935 L 2737.965 1205.608"/>
      <path id="path262" style="fill: rgb(169, 180, 184); fill-opacity: 1; fill-rule: nonzero; stroke: none;" d="M 2395.441 1205.608 L 2332.339 1205.608 L 2332.339 2182.935 L 2395.441 2182.935 L 2395.441 1205.608"/>
      <path id="path264" style="fill: rgb(127, 147, 159); fill-opacity: 1; fill-rule: nonzero; stroke: none;" d="M 1298.096 1205.608 L 1235.002 1205.608 L 1235.002 2182.935 L 1298.096 2182.935 L 1298.096 1205.608"/>
      <path id="path266" style="fill: rgb(169, 180, 184); fill-opacity: 1; fill-rule: nonzero; stroke: none;" d="M 955.587 1205.608 L 892.484 1205.608 L 892.484 2182.935 L 955.587 2182.935 L 955.587 1205.608"/>
      <path id="path268" style="fill: rgb(32, 36, 80); fill-opacity: 1; fill-rule: nonzero; stroke: none;" d="M 2801.112 2179.227 L 832.034 2179.227 C 815.095 2179.227 801.364 2192.175 801.364 2208.142 L 801.364 2220.833 C 801.364 2236.8 815.095 2249.742 832.034 2249.742 L 2801.112 2249.742 C 2818.048 2249.742 2831.777 2236.8 2831.777 2220.833 L 2831.777 2208.142 C 2831.777 2192.175 2818.048 2179.227 2801.112 2179.227"/>
      <path id="path270" style="fill: rgb(127, 147, 159); fill-opacity: 1; fill-rule: nonzero; stroke: none;" d="M 1134.818 2563.228 L 1141.604 2546.174 L 1220.616 2546.174 L 1213.829 2563.228 L 1134.818 2563.228"/>
      <path id="path272" style="fill: rgb(233, 137, 111); fill-opacity: 1; fill-rule: nonzero; stroke: none;" d="M 1921.728 2480.488 L 1916.051 2470.16 L 1996.023 2392.25 L 1996.023 2415.123 L 1921.728 2480.488"/>
      <path id="path274" style="fill: rgb(164, 183, 199); fill-opacity: 1; fill-rule: nonzero; stroke: none;" d="M 3553.788 1149.434 L 360.847 1149.434 L 360.847 1218.174 L 3553.788 1218.174 L 3553.788 1149.434"/>
      <g id="g276" transform="matrix(0.739251, 0, 0, 0.696931, 140.960556, 593.467468)" style="">
        <g clip-path="url(#clipPath282)" id="g278">
          <path id="path290" style="fill:url(#linearGradient288);fill-opacity:1;fill-rule:nonzero;stroke:none" d="m 3931.83,1627.85 c -17.15,-83.25 -11.99,-225.06 -122.12,-247.52 -29.66,-6.04 -58.31,14.51 -75.55,38.07 -22.56,30.83 -27.96,96.08 -27.57,133.41 0.31,29.58 10.4,62.56 13.64,92.41 3.52,32.23 6.37,64.53 10.13,96.74 13.55,116.08 74.19,213.37 176.76,271.32 7.94,-38.11 26.03,-70.36 41.99,-106.95 7.28,-16.68 13.84,-34.27 18.58,-51.75 8.38,-30.95 -1.76,-62.23 -9.29,-91.88 -11.13,-43.83 -17.43,-89.51 -26.57,-133.85"/>
        </g>
      </g>
      <path id="path292" style="fill: rgb(112, 112, 192); fill-opacity: 1; fill-rule: nonzero; stroke: none;" d="M 2943.507 1553.509 C 2944.09 1558.373 2944.726 1563.238 2945.406 1568.103 C 2955.135 1568.13 2965.263 1573.343 2973.424 1577.329 C 2987.588 1584.251 2999.076 1594.174 3010.202 1604.781 L 3009.159 1605.765 C 2998.064 1596.977 2986.561 1588.467 2973.357 1582.662 C 2965.987 1579.427 2955.223 1574.137 2946.145 1573.107 C 2947.004 1578.918 2947.95 1584.71 2948.97 1590.502 C 2959.098 1591.673 2968.383 1597.945 2976.958 1602.74 C 2991.536 1610.894 3004.073 1621.445 3017.07 1631.614 L 3016.884 1631.83 C 2997.006 1618.219 2974.858 1598.844 2949.702 1594.6 C 2951.04 1601.848 2952.445 1609.082 2954.063 1616.261 L 2954.315 1617.382 C 2983.426 1624.324 3003.112 1645.845 3025.401 1663.241 L 3024.993 1663.826 C 3003.047 1647.754 2982.421 1629.425 2955.291 1621.62 C 2957.648 1631.899 2960.096 1642.144 2962.556 1652.368 C 2988.889 1661.532 3009.921 1676.078 3028.328 1696.338 L 3027.796 1696.825 C 3008.745 1678.134 2987.765 1667.401 2963.607 1656.759 C 2966.039 1666.886 2968.456 1677.019 2970.748 1687.179 C 2982.14 1692.455 2994.124 1695.668 3004.643 1702.617 C 3015.021 1709.468 3024.336 1717.636 3031.019 1727.832 L 3030.14 1728.362 C 3015.406 1708.387 2993.191 1702.171 2971.723 1691.668 C 2973.816 1701.14 2975.768 1710.631 2977.512 1720.18 C 3001.434 1732.599 3027.434 1744.113 3040.992 1767.912 L 3040.622 1768.149 C 3026.258 1746.28 3001.153 1736.864 2978.363 1724.96 C 2978.658 1726.661 2978.991 1728.348 2979.272 1730.055 C 2980.743 1738.906 2982.11 1747.778 2983.463 1756.636 C 2997.206 1761.834 3010.313 1769.159 3022.68 1776.756 C 3031.463 1782.15 3040.836 1787.489 3046.587 1795.949 L 3045.738 1796.515 C 3032.904 1779.181 3004.798 1769.159 2984.047 1760.49 C 2985.393 1769.446 2986.731 1778.401 2988.084 1787.363 C 3011.111 1800.501 3038.212 1807.763 3052.384 1831.451 C 3052.804 1832.148 3051.711 1832.796 3051.245 1832.113 C 3036.564 1810.488 3010.727 1803.818 2988.72 1791.545 C 2989.562 1797.093 2990.42 1802.64 2991.307 1808.181 C 3016.182 1816.802 3045.102 1836.435 3058.216 1857.628 C 3058.941 1858.798 3057.152 1859.879 3056.339 1858.764 C 3042.965 1840.163 3016.086 1819.944 2992.038 1812.585 C 2993.509 1821.569 2995.047 1830.539 2996.747 1839.494 L 2997.11 1840.282 C 3008.28 1843.382 3019.317 1850.805 3028.957 1856.415 C 3040.578 1863.176 3051.666 1871.023 3058.903 1882.139 C 3059.702 1883.365 3057.581 1884.502 3056.834 1883.24 C 3045.782 1864.652 3019.568 1852.192 2997.864 1845.097 C 2998.499 1848.366 2999.127 1851.627 2999.815 1854.889 C 3000.836 1859.76 3001.893 1864.639 3002.943 1869.511 C 3011.836 1875.295 3023.116 1878.062 3032.039 1884.174 C 3039.794 1889.485 3046.566 1895.882 3053.212 1902.372 C 3053.877 1903.005 3052.894 1904.001 3052.198 1903.382 C 3043.195 1895.409 3033.932 1887.749 3022.969 1882.223 C 3016.84 1879.128 3009.854 1877.365 3003.918 1873.971 C 3005.655 1881.937 3007.385 1889.903 3009.041 1897.883 L 3009.359 1897.945 L 3009.677 1897.883 L 3011.134 1898.315 C 3023.22 1901.186 3032.461 1910.992 3040.578 1919.349 L 3040.267 1919.648 C 3031.743 1912.225 3022.06 1904.001 3010.645 1900.81 L 3010.534 1900.858 L 3009.67 1900.984 C 3010.986 1907.479 3012.242 1913.982 3013.395 1920.498 C 3014.267 1920.644 3015.029 1921.348 3014.822 1922.171 C 3021.232 1926.219 3027.05 1931.391 3032.512 1936.444 L 3031.906 1937.064 C 3026.228 1932.45 3020.626 1928.645 3014.238 1925.314 C 3016.493 1938.772 3018.245 1952.313 3019.044 1965.98 C 3019.118 1967.249 3017.084 1967.262 3016.966 1966.014 C 3015.701 1952.856 3013.676 1939.824 3011.266 1926.854 C 3004.606 1935.099 2997.184 1943.587 2993.11 1953.024 L 2992.26 1952.787 C 2994.257 1946.926 2997.693 1941.803 3001.094 1936.591 C 3004.14 1931.927 3006.572 1926.499 3010.453 1922.358 C 3009.108 1915.397 3007.659 1908.455 3006.136 1901.514 C 2998.034 1902.74 2990.604 1904.189 2983.913 1909.724 C 2975.723 1916.491 2971.066 1925.697 2970.26 1935.906 C 2970.157 1937.161 2968.057 1937.155 2968.175 1935.9 C 2969.1 1926.408 2973.106 1917.481 2979.996 1910.4 C 2987.241 1902.957 2995.749 1900.58 3005.507 1898.67 C 3003.733 1890.662 3001.9 1882.662 3000.03 1874.668 C 2992.674 1878.829 2985.836 1884.264 2979.205 1889.255 C 2968.493 1897.297 2962.173 1906.977 2952.88 1916.038 C 2951.949 1916.936 2950.434 1915.634 2951.35 1914.707 C 2960.058 1905.981 2965.951 1896.531 2975.849 1888.69 C 2982.982 1883.045 2990.856 1875.964 2999.364 1871.79 L 2999.069 1870.522 L 2998.788 1870.298 L 2998.595 1868.507 C 2996.806 1860.855 2995.025 1853.195 2993.309 1845.515 L 2993.007 1844.073 C 2974.067 1852.248 2945.769 1866.452 2943.256 1887.164 C 2943.019 1889.13 2939.9 1888.585 2940.387 1886.572 C 2945.982 1863.127 2973.313 1852.735 2992.142 1839.953 C 2990.286 1831.277 2988.578 1822.579 2987.019 1813.853 C 2974.784 1817.826 2963.156 1822.732 2952.888 1830.426 C 2943.543 1837.431 2930.334 1845.878 2926.127 1856.729 L 2925.587 1856.506 C 2929.476 1845.725 2941.334 1838.309 2949.96 1830.949 C 2960.901 1821.618 2972.101 1813.693 2986.176 1809.958 L 2986.139 1808.794 C 2985.17 1803.261 2984.239 1797.727 2983.345 1792.179 C 2960.347 1793.846 2928.16 1810.314 2916.406 1826.712 L 2916.295 1826.629 C 2924.308 1814.112 2936.424 1806.801 2950.093 1800.458 C 2960.295 1795.713 2971.324 1790.102 2982.872 1789.293 C 2981.223 1779.035 2979.62 1768.77 2978 1758.503 C 2968.019 1762.01 2957.449 1763.689 2947.572 1767.41 C 2932.899 1772.951 2921.684 1782.903 2913.042 1795.134 C 2912.525 1795.873 2911.217 1795.246 2911.734 1794.479 C 2927.657 1770.616 2950.566 1763.612 2977.394 1754.677 C 2976.055 1746.259 2974.651 1737.846 2973.18 1729.441 C 2951.217 1733.407 2922.822 1746.049 2911.711 1764.031 C 2910.891 1765.348 2908.666 1764.253 2909.479 1762.922 C 2916.494 1751.395 2928.589 1744.113 2940.926 1738.236 C 2949.812 1734.006 2962.047 1726.996 2972.633 1726.243 L 2972.485 1725.421 C 2970.311 1713.329 2967.784 1701.293 2965.048 1689.306 C 2940.513 1695.117 2924.656 1712.248 2906.825 1728.284 C 2905.591 1729.4 2903.646 1727.699 2904.881 1726.563 C 2923.044 1709.704 2938.997 1692.023 2964.235 1685.786 C 2961.973 1676.036 2959.563 1666.3 2957.064 1656.598 C 2936.173 1662.104 2915.489 1676.084 2901.976 1692.142 C 2901.015 1693.285 2899.336 1691.738 2900.245 1690.609 C 2914.292 1673.185 2934.546 1660.034 2956.103 1652.835 C 2953.39 1642.416 2950.582 1632.025 2947.75 1621.633 C 2926.282 1624.715 2909.745 1637.384 2896.527 1653.4 L 2895.817 1652.898 C 2907.564 1637.489 2925.328 1619.696 2946.708 1617.828 C 2945.799 1614.518 2944.896 1611.201 2943.987 1607.891 C 2943.44 1605.897 2942.871 1603.869 2942.279 1601.82 C 2926.097 1606.308 2911.075 1611.786 2897.718 1622.073 L 2897.266 1621.515 C 2909.96 1610.741 2925.159 1603.479 2941.399 1598.767 C 2939.596 1592.53 2937.695 1586.118 2935.811 1579.58 C 2931.797 1581.344 2927.916 1583.274 2923.525 1584.515 C 2915.475 1586.787 2910.262 1591.603 2903.255 1595.569 L 2902.53 1594.683 C 2908.688 1590.899 2913.006 1586.027 2920.028 1583.539 C 2925.225 1581.686 2930.126 1579.337 2935.153 1577.232 C 2927.775 1551.306 2921.248 1523.75 2924.781 1498.869 C 2925.573 1493.349 2935.39 1491.886 2936.912 1497.761 C 2941.57 1515.798 2941.334 1535.068 2943.507 1553.509"/>
      <g id="g294" transform="matrix(0.739251, 0, 0, 0.696931, 140.960556, 593.467468)" style="">
        <g clip-path="url(#clipPath300)" id="g296">
          <path id="path308" style="fill:url(#linearGradient306);fill-opacity:1;fill-rule:nonzero;stroke:none" d="m 3583.28,1651.69 c 19.59,-82.72 84.12,-209.09 -6.24,-275.95 -24.33,-18 -58.98,-11.44 -84.56,2.64 -33.46,18.42 -65.9,75.3 -81.29,109.31 -12.21,26.95 -16.98,61.11 -26.63,89.53 -10.43,30.7 -21.47,61.19 -31.66,91.97 -36.71,110.96 -22.79,224.75 45.74,320.58 23.27,-31.2 53.3,-52.8 83.21,-79.23 13.62,-12.05 27,-25.24 38.67,-39.08 20.67,-24.53 24.68,-57.16 30.36,-87.22 8.41,-44.44 21.98,-88.51 32.4,-132.55"/>
        </g>
      </g>
      <path id="path310" style="fill: rgb(112, 112, 192); fill-opacity: 1; fill-rule: nonzero; stroke: none;" d="M 2773.678 1545.007 C 2772.015 1549.648 2770.419 1554.317 2768.852 1559 C 2777.671 1562.89 2784.516 1571.643 2790.127 1578.514 C 2799.877 1590.425 2805.836 1603.98 2811.18 1618.038 C 2811.461 1618.783 2810.145 1619.215 2809.798 1618.504 C 2803.67 1606.127 2797.053 1593.833 2787.673 1583.31 C 2782.446 1577.448 2775.053 1568.381 2767.291 1563.83 C 2765.458 1569.44 2763.728 1575.072 2762.064 1580.716 C 2770.714 1585.811 2776.325 1595.185 2781.95 1602.957 C 2791.517 1616.148 2798.162 1630.701 2805.392 1645.085 L 2805.133 1645.211 C 2793.195 1624.965 2781.787 1598.586 2760.89 1584.731 C 2758.857 1591.833 2756.897 1598.948 2755.146 1606.099 L 2754.88 1607.221 C 2778.151 1625.09 2786.371 1652.438 2798.783 1677.074 L 2798.148 1677.444 C 2785.455 1654.145 2774.972 1629.314 2753.859 1611.451 C 2751.389 1621.703 2749.024 1631.962 2746.673 1642.215 C 2766.456 1661.003 2779.009 1682.559 2786.623 1708.248 L 2785.92 1708.478 C 2777.02 1683.953 2762.804 1665.875 2745.668 1646.612 C 2743.339 1656.766 2740.997 1666.907 2738.519 1677.033 C 2746.489 1686.35 2755.907 1694.031 2762.345 1704.512 C 2768.689 1714.848 2773.471 1725.964 2774.964 1737.868 L 2773.937 1738 C 2769.516 1714.025 2752.166 1699.558 2737.403 1681.493 C 2735.052 1690.909 2732.568 1700.289 2729.886 1709.642 C 2746.016 1730.424 2764.43 1751.199 2766.064 1778.17 L 2765.621 1778.234 C 2762.39 1752.698 2743.85 1734.174 2728.517 1714.311 C 2728.022 1715.97 2727.572 1717.636 2727.061 1719.294 C 2724.43 1727.902 2721.702 1736.488 2718.944 1745.06 C 2729.094 1755.242 2737.692 1767.09 2745.506 1778.903 C 2751.05 1787.28 2757.156 1795.859 2758.583 1805.818 L 2757.555 1805.986 C 2753.689 1785.168 2732.694 1764.908 2717.754 1748.781 C 2714.967 1757.444 2712.172 1766.093 2709.393 1774.749 C 2724.385 1795.824 2745.698 1813.198 2747.945 1840.303 C 2748.012 1841.111 2746.733 1841.257 2746.622 1840.456 C 2742.993 1815.004 2722.552 1798.682 2708.092 1778.791 C 2706.37 1784.165 2704.669 1789.531 2702.992 1794.912 C 2721.68 1812.62 2739.111 1841.926 2741.506 1866.361 C 2741.647 1867.706 2739.533 1867.977 2739.303 1866.639 C 2735.504 1844.456 2720.186 1815.442 2701.69 1799.197 C 2698.992 1807.923 2696.375 1816.67 2693.906 1825.451 L 2693.883 1826.321 C 2702.621 1833.57 2709.304 1844.7 2715.537 1853.614 C 2723.04 1864.367 2729.582 1875.908 2731.164 1888.851 C 2731.334 1890.287 2728.91 1890.475 2728.798 1889.032 C 2727.099 1867.782 2708.905 1846.052 2692.405 1830.985 C 2691.526 1834.197 2690.624 1837.41 2689.788 1840.637 C 2688.539 1845.466 2687.311 1850.303 2686.093 1855.141 C 2691.556 1863.921 2700.544 1870.919 2705.897 1880.013 C 2710.554 1887.91 2713.829 1896.405 2716.949 1904.929 C 2717.259 1905.772 2715.928 1906.288 2715.566 1905.444 C 2710.975 1894.621 2706.007 1884.007 2698.556 1874.634 C 2694.38 1869.385 2688.834 1865.009 2684.976 1859.572 C 2682.979 1867.49 2680.984 1875.393 2678.906 1883.282 L 2679.172 1883.47 L 2679.483 1883.54 L 2680.614 1884.509 C 2690.284 1891.924 2694.276 1904.49 2697.891 1915.299 L 2697.477 1915.445 C 2693.071 1905.319 2687.977 1894.015 2679.062 1886.586 L 2678.929 1886.579 L 2678.086 1886.348 C 2676.386 1892.76 2674.604 1899.158 2672.741 1905.521 C 2673.457 1906.002 2673.835 1906.943 2673.28 1907.612 C 2677.273 1913.829 2680.237 1920.825 2682.921 1927.586 L 2682.1 1927.913 C 2679.018 1921.467 2675.639 1915.787 2671.343 1910.219 C 2667.359 1923.314 2662.887 1936.29 2657.49 1949.002 C 2656.995 1950.181 2655.147 1949.386 2655.591 1948.208 C 2660.336 1935.775 2664.335 1923.153 2667.966 1910.441 C 2658.23 1915.257 2647.703 1920.003 2639.785 1926.938 L 2639.12 1926.387 C 2643.541 1921.864 2648.96 1918.588 2654.379 1915.215 C 2659.22 1912.198 2663.863 1908.246 2669.229 1906.036 C 2671.136 1899.193 2672.925 1892.315 2674.648 1885.428 C 2666.76 1883.316 2659.375 1881.672 2650.83 1884.027 C 2640.377 1886.906 2632.031 1893.395 2626.73 1902.329 C 2626.072 1903.423 2624.172 1902.587 2624.844 1901.5 C 2629.931 1893.255 2637.568 1886.746 2646.979 1883.072 C 2656.884 1879.205 2665.659 1880.438 2675.358 1882.6 C 2677.332 1874.626 2679.246 1866.653 2681.138 1858.659 C 2672.6 1859.496 2663.966 1861.712 2655.723 1863.586 C 2642.417 1866.625 2632.356 1872.884 2619.87 1877.4 C 2618.62 1877.846 2617.829 1876.054 2619.079 1875.588 C 2630.878 1871.134 2640.443 1864.918 2652.945 1861.74 C 2661.941 1859.468 2672.239 1856.186 2681.819 1855.781 L 2682.115 1854.513 L 2681.967 1854.192 C 2681.642 1853.39 2682.012 1852.798 2682.595 1852.499 C 2684.399 1844.853 2686.21 1837.193 2688.095 1829.556 L 2688.458 1828.127 C 2667.633 1828.001 2635.623 1829.611 2624.076 1847.397 C 2622.975 1849.083 2620.395 1847.348 2621.733 1845.71 C 2637.309 1826.691 2666.731 1828.148 2689.515 1824.049 C 2691.725 1815.442 2694.069 1806.878 2696.559 1798.347 C 2683.697 1797.078 2670.953 1796.898 2658.2 1799.797 C 2646.594 1802.424 2630.84 1804.822 2622.169 1812.982 L 2621.769 1812.572 C 2630.13 1804.341 2644.191 1802.341 2655.302 1799.099 C 2669.407 1794.988 2683.113 1792.263 2697.543 1794.479 L 2698.031 1793.405 C 2699.635 1788.005 2701.268 1782.617 2702.932 1777.23 C 2681.338 1769.599 2644.79 1771.718 2626.797 1781.907 L 2626.73 1781.788 C 2639.593 1773.633 2653.861 1771.822 2669.082 1771.501 C 2680.458 1771.264 2692.967 1770.567 2703.804 1774.428 C 2706.895 1764.469 2710.044 1754.531 2713.164 1744.579 C 2702.555 1743.784 2692.213 1741.101 2681.598 1740.551 C 2665.807 1739.735 2651.192 1744.293 2637.886 1751.946 C 2637.08 1752.405 2636.171 1751.325 2636.983 1750.824 C 2662.103 1735.526 2685.996 1738.299 2714.324 1740.871 C 2716.881 1732.704 2719.388 1724.521 2721.806 1716.319 C 2700.123 1711.175 2668.719 1711.328 2650.594 1723.218 C 2649.262 1724.089 2647.739 1722.201 2649.063 1721.316 C 2660.596 1713.663 2674.819 1711.873 2688.627 1711.453 C 2698.578 1711.154 2712.809 1709.663 2722.737 1713.196 L 2722.98 1712.396 C 2726.425 1700.568 2729.516 1688.65 2732.399 1676.691 C 2707.553 1672.196 2685.508 1681.416 2662.169 1688.866 C 2660.543 1689.382 2659.546 1687.069 2661.179 1686.525 C 2685.19 1678.475 2707.567 1668.788 2733.242 1673.185 C 2735.563 1663.435 2737.736 1653.657 2739.814 1643.866 C 2718.405 1640.548 2693.396 1644.987 2673.961 1654.167 C 2672.578 1654.822 2671.742 1652.745 2673.074 1652.083 C 2693.61 1641.886 2717.851 1638.019 2740.619 1640.067 C 2742.83 1629.544 2744.936 1618.999 2747.014 1608.461 C 2726.174 1602.713 2705.513 1607.619 2686.358 1616.874 L 2685.951 1616.135 C 2703.494 1606.845 2727.563 1597.785 2747.776 1604.601 C 2748.44 1601.235 2749.098 1597.868 2749.756 1594.502 C 2750.155 1592.475 2750.547 1590.404 2750.931 1588.32 C 2734.247 1585.951 2718.176 1584.94 2701.461 1588.948 L 2701.306 1588.265 C 2717.635 1583.546 2734.661 1583.01 2751.501 1585.205 C 2752.654 1578.836 2753.8 1572.256 2755.02 1565.586 C 2750.599 1565.586 2746.208 1565.795 2741.677 1565.175 C 2733.36 1564.032 2726.477 1566.318 2718.338 1567.127 C 2717.599 1567.203 2717.325 1566.137 2718.087 1566.039 C 2725.361 1565.05 2731.459 1562.353 2738.948 1562.89 C 2744.485 1563.28 2749.978 1563.098 2755.471 1563.196 C 2760.387 1536.762 2766.803 1509.184 2781.16 1488.025 C 2784.338 1483.342 2793.897 1485.92 2792.64 1491.844 C 2788.796 1510.055 2779.947 1527.429 2773.678 1545.007"/>
      <g id="g312" transform="matrix(0.739251, 0, 0, 0.696931, 140.960556, 593.467468)" style="">
        <g clip-path="url(#clipPath318)" id="g314">
          <path id="path326" style="fill:url(#linearGradient324);fill-opacity:1;fill-rule:nonzero;stroke:none" d="m 3774.17,1715.8 c 4.65,-105.1 53.85,-273.67 -71.48,-334.01 -33.76,-16.25 -74.36,-0.27 -102.19,22.77 -36.42,30.15 -62.69,106.81 -73.53,151.71 -8.59,35.59 -6.49,78.22 -11.64,115.01 -5.56,39.74 -11.93,79.36 -17.19,119.15 -18.93,143.38 24.33,278.5 129.83,379.12 21.07,-43.31 52.58,-76.52 82.8,-115.59 13.79,-17.8 26.99,-36.92 37.98,-56.45 19.45,-34.6 16.76,-75.21 16.71,-113.06 -0.06,-55.96 6.23,-112.69 8.71,-168.65"/>
        </g>
      </g>
      <path id="path328" style="fill: rgb(112, 112, 192); fill-opacity: 1; fill-rule: nonzero; stroke: none;" d="M 2862.27 1550.191 C 2861.398 1556.198 2860.599 1562.221 2859.845 1568.249 C 2871.518 1571.058 2881.993 1580.208 2890.51 1587.324 C 2905.28 1599.681 2915.858 1614.866 2925.802 1630.777 C 2926.327 1631.628 2924.833 1632.436 2924.235 1631.655 C 2913.744 1617.941 2902.678 1604.44 2888.699 1593.701 C 2880.907 1587.714 2869.693 1578.298 2859.128 1574.472 C 2858.285 1581.686 2857.554 1588.906 2856.925 1596.14 C 2868.695 1600.433 2877.817 1610.615 2886.562 1618.825 C 2901.428 1632.777 2913.086 1649.023 2925.402 1664.927 L 2925.115 1665.143 C 2905.635 1643.127 2885.291 1613.549 2856.489 1601.27 C 2855.751 1610.343 2855.122 1619.424 2854.752 1628.505 L 2854.7 1629.928 C 2887.391 1646.57 2904.083 1678.022 2925.233 1705.258 L 2924.552 1705.843 C 2903.387 1680.294 2884.544 1652.396 2854.5 1635.286 C 2854.02 1648.29 2853.658 1661.282 2853.326 1674.259 C 2881.978 1692.77 2902.53 1716.242 2918.098 1745.812 L 2917.308 1746.245 C 2900.461 1718.368 2878.741 1699.495 2853.177 1679.827 C 2852.845 1692.679 2852.483 1705.516 2851.965 1718.353 C 2863.934 1727.95 2877.27 1735.233 2887.671 1746.572 C 2897.917 1757.758 2906.47 1770.227 2911.201 1784.366 C 2911.46 1785.106 2910.27 1785.475 2909.982 1784.75 C 2898.729 1756.581 2874.069 1742.767 2851.692 1724.033 C 2851.151 1735.986 2850.442 1747.938 2849.466 1759.891 C 2874.179 1781.628 2901.665 1802.87 2910.277 1835.305 L 2909.76 1835.479 C 2899.558 1805.135 2872.464 1786.666 2848.949 1765.864 C 2848.764 1767.989 2848.617 1770.115 2848.402 1772.248 C 2847.316 1783.286 2846.11 1794.318 2844.876 1805.344 C 2859.705 1815.506 2873.063 1828.036 2885.468 1840.686 C 2894.265 1849.662 2903.802 1858.757 2907.978 1870.549 C 2908.237 1871.295 2907.069 1871.713 2906.773 1870.981 C 2896.956 1846.519 2866.454 1826.461 2844.336 1810.125 C 2843.08 1821.262 2841.801 1832.392 2840.544 1843.515 C 2863.948 1865.866 2894.125 1882.334 2903.513 1914.797 C 2903.787 1915.76 2902.271 1916.226 2901.931 1915.264 C 2891.278 1885.129 2862.418 1869.734 2839.952 1848.714 C 2839.184 1855.62 2838.437 1862.52 2837.72 1869.427 C 2864.783 1886.871 2893.171 1918.693 2902.094 1947.874 C 2902.581 1949.477 2900.083 1950.272 2899.469 1948.696 C 2889.408 1922.554 2863.667 1890.628 2837.18 1874.919 C 2836.049 1886.118 2835.014 1897.318 2834.164 1908.538 L 2834.356 1909.605 C 2846.761 1916.511 2857.613 1928.569 2867.379 1938.054 C 2879.148 1949.483 2889.925 1962.084 2895.034 1977.479 C 2895.596 1979.18 2892.683 1979.932 2892.195 1978.211 C 2884.922 1952.752 2857.472 1930.311 2833.705 1915.584 C 2833.424 1919.69 2833.122 1923.788 2832.9 1927.9 C 2832.56 1934.039 2832.257 1940.187 2831.961 1946.333 C 2840.758 1955.819 2853.407 1962.363 2862.152 1972.245 C 2869.744 1980.831 2875.813 1990.442 2881.705 2000.122 C 2882.289 2001.085 2880.795 2001.998 2880.153 2001.056 C 2871.917 1988.909 2863.268 1977.075 2851.899 1967.304 C 2845.541 1961.847 2837.72 1957.728 2831.688 1951.972 C 2831.215 1962.021 2830.727 1972.078 2830.142 1982.114 L 2830.497 1982.281 L 2830.904 1982.302 C 2831.68 1982.343 2832.198 1982.727 2832.515 1983.228 C 2846.088 1990.128 2854.027 2004.548 2861.08 2016.891 L 2860.615 2017.155 C 2852.771 2005.809 2843.804 1993.187 2831.133 1986.094 L 2830.978 1986.114 L 2829.891 1986.016 C 2829.395 1994.185 2828.812 2002.345 2828.095 2010.493 C 2829.1 2010.925 2829.788 2011.984 2829.27 2012.911 C 2835.657 2019.608 2840.98 2027.47 2845.904 2035.094 L 2844.979 2035.673 C 2839.657 2028.508 2834.149 2022.34 2827.562 2016.507 C 2825.936 2033.31 2823.682 2050.051 2820.244 2066.686 C 2819.926 2068.22 2817.486 2067.655 2817.746 2066.135 C 2820.458 2049.973 2822.21 2033.763 2823.504 2017.518 C 2812.859 2025.505 2801.223 2033.569 2793.298 2043.729 L 2792.352 2043.206 C 2796.625 2036.739 2802.406 2031.576 2808.157 2026.292 C 2813.31 2021.566 2817.982 2015.747 2823.97 2011.886 C 2824.599 2003.154 2825.086 1994.407 2825.5 1985.654 C 2815.372 1984.811 2805.998 1984.42 2796.189 1989.146 C 2784.191 1994.923 2775.631 2004.639 2771.379 2016.66 C 2770.854 2018.13 2768.334 2017.525 2768.888 2016.054 C 2773.05 2004.924 2780.731 1995.349 2791.273 1988.831 C 2802.369 1981.967 2813.332 1981.549 2825.655 1982.051 C 2826.098 1971.939 2826.468 1961.819 2826.801 1951.692 C 2816.629 1954.578 2806.679 1959.15 2797.12 1963.234 C 2781.684 1969.827 2770.987 1979.633 2756.92 1987.843 C 2755.515 1988.665 2754.111 1986.657 2755.515 1985.815 C 2768.77 1977.834 2778.868 1968.175 2793.284 1961.603 C 2803.655 1956.864 2815.372 1950.619 2826.919 1948.04 L 2826.979 1946.445 L 2826.713 1946.089 C 2826.121 1945.183 2826.432 1944.375 2827.06 1943.895 C 2827.37 1934.193 2827.696 1924.484 2828.109 1914.797 L 2828.213 1912.978 C 2802.857 1917.369 2764.334 1926.317 2754.673 1950.452 C 2753.748 1952.745 2750.177 1951.198 2751.405 1948.919 C 2765.665 1922.394 2801.8 1917.746 2828.494 1907.786 C 2829.056 1896.851 2829.811 1885.917 2830.748 1875.002 C 2814.789 1876.264 2799.257 1878.836 2784.464 1885.136 C 2771.002 1890.865 2752.433 1897.221 2743.894 1909.041 L 2743.31 1908.623 C 2751.457 1896.796 2768.06 1891.289 2780.775 1884.934 C 2796.913 1876.849 2812.895 1870.542 2830.985 1870.089 L 2831.318 1868.682 C 2831.946 1861.761 2832.605 1854.854 2833.299 1847.948 C 2805.178 1843.376 2761.266 1853.927 2741.89 1870.25 L 2741.772 1870.117 C 2755.419 1857.391 2772.311 1852.081 2790.741 1848.373 C 2804.52 1845.599 2819.556 1842.017 2833.669 1844.351 C 2834.984 1831.57 2836.366 1818.789 2837.727 1806.006 C 2824.62 1807.366 2811.402 1806.362 2798.361 1808.014 C 2778.963 1810.46 2762.316 1819.193 2748.004 1831.402 C 2747.147 1832.134 2745.78 1831.02 2746.644 1830.238 C 2773.427 1806.159 2803.153 1804.306 2838.223 1801.253 C 2839.332 1790.764 2840.359 1780.269 2841.291 1769.766 C 2813.664 1768.247 2775.519 1775.293 2756.409 1793.699 C 2755.005 1795.044 2752.684 1793.092 2754.081 1791.727 C 2766.219 1779.907 2783.067 1774.617 2799.759 1771.104 C 2811.78 1768.56 2828.715 1763.647 2841.653 1765.773 L 2841.749 1764.741 C 2843.036 1749.61 2843.863 1734.453 2844.432 1719.28 C 2813.132 1719.245 2788.589 1735.275 2762.043 1749.416 C 2760.202 1750.399 2758.413 1747.806 2760.261 1746.782 C 2787.48 1731.756 2812.304 1715.098 2844.602 1714.834 C 2845.016 1702.485 2845.259 1690.121 2845.378 1677.757 C 2818.544 1678.398 2789.225 1689.25 2767.853 1704.659 C 2766.338 1705.753 2764.814 1703.419 2766.271 1702.317 C 2788.73 1685.437 2817.249 1675.443 2845.438 1672.969 C 2845.533 1659.686 2845.512 1646.417 2845.445 1633.147 C 2818.699 1630.708 2794.784 1641.182 2773.774 1656.613 L 2773.087 1655.811 C 2792.131 1640.681 2819.172 1624.414 2845.423 1628.282 C 2845.401 1624.052 2845.378 1619.815 2845.349 1615.578 C 2845.333 1613.027 2845.297 1610.427 2845.253 1607.806 C 2824.392 1608.567 2804.601 1610.845 2785.27 1619.368 L 2784.908 1618.574 C 2803.611 1609.277 2824.184 1604.907 2845.186 1603.89 C 2845.023 1595.896 2844.809 1587.651 2844.653 1579.281 C 2839.272 1580.25 2833.979 1581.456 2828.316 1581.686 C 2817.923 1582.111 2810.123 1586.397 2800.439 1589.157 C 2799.552 1589.408 2798.961 1588.181 2799.863 1587.888 C 2808.46 1585.1 2815.209 1580.494 2824.436 1579.504 C 2831.274 1578.779 2837.905 1577.358 2844.609 1576.277 C 2844.085 1543.054 2845.127 1508.132 2857.376 1479.285 C 2860.089 1472.888 2872.339 1473.94 2872.28 1481.418 C 2872.065 1504.389 2865.575 1527.45 2862.27 1550.191"/>
      <path id="path330" style="fill: rgb(146, 166, 179); fill-opacity: 1; fill-rule: nonzero; stroke: none;" d="M 2982.162 1522.753 L 2978.732 1463.215 L 2973.365 1370.502 L 2964.568 1218.174 L 2745.809 1218.174 L 2737.02 1370.502 L 2731.645 1463.215 L 2728.214 1522.753 L 2982.162 1522.753"/>
      <path id="path332" style="fill: rgb(164, 183, 199); fill-opacity: 1; fill-rule: nonzero; stroke: none;" d="M 2978.732 1463.215 L 2978.022 1451.276 L 2977.327 1438.919 L 2973.365 1370.502 L 2737.02 1370.502 L 2733.056 1438.919 L 2732.355 1451.276 L 2731.645 1463.215 L 2978.732 1463.215"/>
      <path id="path334" style="fill: rgb(146, 166, 179); fill-opacity: 1; fill-rule: nonzero; stroke: none;" d="M 2978.022 1451.276 L 2977.327 1438.919 L 2733.056 1438.919 L 2732.355 1451.276 L 2978.022 1451.276"/>
    </g>
  </g>
</svg>